<?xml version="1.0" standalone="no"?>
<!DOCTYPE svg PUBLIC "-//W3C//DTD SVG 1.1//EN" "http://www.w3.org/Graphics/SVG/1.1/DTD/svg11.dtd" >
<svg xmlns="http://www.w3.org/2000/svg" xmlns:xlink="http://www.w3.org/1999/xlink" version="1.1">
<metadata>
Created by FontForge 20141024 at Tue Jan 19 15:32:58 2016
 By Jimmy Warting
Copyright (c) 2013 by Moinzek. All rights reserved.
</metadata>
<defs>
<font id="Valkyrie-BoldCondensedItalic" horiz-adv-x="333" >
  <font-face 
    font-family="Valkyrie Cond"
    font-weight="700"
    font-style="italic"
    font-stretch="condensed"
    units-per-em="1000"
    panose-1="0 0 0 0 0 0 0 0 0 0"
    ascent="716"
    descent="-284"
    x-height="458"
    cap-height="758"
    bbox="-54 -302 1184 918"
    underline-thickness="10"
    underline-position="-89"
    unicode-range="U+0002-2122"
  />
<missing-glyph horiz-adv-x="500" 
d="M63 0v716h375v-716h-375v0zM125 63h250v591h-250v-591v0z" />
    <glyph glyph-name=".notdef" horiz-adv-x="500" 
d="M63 0v716h375v-716h-375v0zM125 63h250v591h-250v-591v0z" />
    <glyph glyph-name="NULL" horiz-adv-x="0" 
 />
    <glyph glyph-name="NULL" horiz-adv-x="0" 
 />
    <glyph glyph-name="nonmarkingreturn" unicode="&#xd;" horiz-adv-x="0" 
 />
    <glyph glyph-name="space" unicode=" " horiz-adv-x="172" 
 />
    <glyph glyph-name="uni0002" horiz-adv-x="386" 
d="M342 0l115 426h-320l7 28h341l-122 -454h-21z" />
    <glyph glyph-name="exclam" unicode="!" horiz-adv-x="164" 
d="M111 147l131 486q-19 -24 -36 -53.5t-26 -63.5h-19q13 49 39.5 91t52.5 70q7 7 15 16q7 8 16 17t18 19q21 23 48 51l-169 -633h-70zM134 101q17 0 21 -15.5t-1 -34.5t-17.5 -34.5t-29.5 -15.5t-21 15.5t1 34.5t17.5 34.5t29.5 15.5z" />
    <glyph glyph-name="quotedbl" unicode="&#x22;" horiz-adv-x="220" 
d="M321 597q-13 0 -21 11t-2 34t22.5 36t30.5 10q-5 27 -29 46l15 24q23 -18 32.5 -49t0.5 -67q-7 -23 -21 -34t-28 -11zM245 593q-23 18 -33 49t1 67q6 23 20 34t28 11q13 0 21 -11t2 -34t-22.5 -36t-30.5 -10q5 -27 29 -46z" />
    <glyph glyph-name="numbersign" unicode="#" horiz-adv-x="326" 
d="M226 71l-27 -70l-19 4l26 66h-86l-28 -70l-19 4l26 66h-58l8 27h61l101 260h-93l8 27h96l27 70l20 -4l-26 -66h86l27 70l19 -4l-25 -66h57l-7 -27h-61l-102 -260h93l-7 -27h-97zM232 358l-102 -260h86l102 260h-86z" />
    <glyph glyph-name="dollar" unicode="$" horiz-adv-x="501" 
d="M100 290l5 18l18 68l3 11h21q-9 -36 0 -52.5t36 -16.5v-1q23 -5 31 -30t-3 -67h-20q15 60 -16 68q-10 -42 -12 -86.5t5.5 -82t25.5 -63.5t50 -31l150 560q-24 6 -30 31t2 54.5t27.5 54.5t46.5 31l19 71h21l-19 -70q25 -3 34 -28.5t-3 -67.5h-20q8 31 2.5 48t-21.5 20
l-31 -118q46 -2 79.5 -26.5t52.5 -66t21 -96.5t-15 -118q-17 -64 -48.5 -119t-72.5 -96t-88 -65.5t-94 -25.5l-19 -70h-20l18 70q-43 3 -74.5 27t-49.5 63t-22 91t10 111zM432 727q-17 -5 -28.5 -21.5t-16.5 -35t-2 -35t17 -22.5zM492 503q-10 33 -29 55t-49 25l-149 -558
q31 2 62 24t59 56q34 40 59 92t39.5 106.5t17 106.5t-9.5 93z" />
    <glyph glyph-name="percent" unicode="%" horiz-adv-x="332" 
d="M243 584q-27 0 -39 25.5t-2 61.5q5 18 14 34t21 27.5t25.5 18.5t26.5 7q26 0 38 -25.5t3 -61.5q-5 -18 -14 -34t-21 -27.5t-25.5 -18.5t-26.5 -7zM38 -1l-15 12l474 748l15 -12zM246 0q-26 0 -38 25.5t-2 60.5q5 18 14 34t21 27.5t25.5 18.5t26.5 7q26 0 38 -25.5
t2 -61.5q-5 -18 -14 -33.5t-21 -27t-25.5 -18.5t-26.5 -7zM264 715q-14 -20 -20 -44.5t-4 -41.5q2 -16 9 -18t19 15q14 20 20 45t4 42q-2 16 -9 17.5t-19 -15.5zM268 131q-15 -20 -20.5 -44.5t-3.5 -41.5q5 -34 27 -3q15 20 20.5 44.5t3.5 41.5t-8.5 18.5t-18.5 -15.5z" />
    <glyph glyph-name="ampersand" unicode="&#x26;" horiz-adv-x="445" 
d="M442 150q9 32 7.5 63.5t-9.5 55.5l-13 -49q-14 -46 -39 -86t-56.5 -70t-67 -47t-69.5 -17q-36 0 -62 18.5t-41 50t-17.5 74t10.5 90.5q10 38 28.5 73.5t42 64.5t51.5 51t58 33q-25 20 -32.5 58.5t4.5 84.5q9 33 26 62.5t39 51t47 34t50 12.5q24 0 42.5 -12.5t28.5 -34
t11.5 -51t-7.5 -62.5q-9 -34 -26 -63t-38.5 -50t-46.5 -33.5t-50 -13.5q-23 -1 -43.5 -16.5t-40.5 -41.5q-23 -30 -40.5 -68.5t-28.5 -78.5t-14 -78.5t4 -68.5q6 -24 19 -42t34 -16q26 2 50 22t44 50t35 65.5t24 67.5l61 229h21q-11 -42 -5 -81.5t18 -65.5
q12 -27 18.5 -71.5t-6.5 -93.5h-21zM411 695q-2 15 -6 24.5t-14 11.5q-8 1 -19 -10.5t-19 -25.5q-13 -19 -23.5 -44.5t-17.5 -52t-10 -52.5t-1 -45q2 -14 6 -23.5t13 -11.5q8 -1 19 10t20 25q12 19 22.5 45t18 52.5t10.5 52t1 44.5z" />
    <glyph glyph-name="quotesingle" unicode="'" horiz-adv-x="107" 
d="M259 710l19 10q-11 -41 -34 -74t-55 -53l-2 24q30 18 48 46q-14 -3 -21.5 10t-1.5 35q6 23 19 34.5t25 11.5q14 0 18 -13.5t1 -30.5q0 -2 -1 -6t-5 -18z" />
    <glyph glyph-name="parenleft" unicode="(" horiz-adv-x="273" 
d="M242 0q-54 1 -85.5 35.5t-44.5 89t-9.5 121.5t21.5 133q23 84 65 163q24 43 53.5 82t64 69t71.5 48t76 18l-8 -28q-39 0 -73.5 -30t-63.5 -71q-36 -50 -64.5 -116t-47 -135t-25 -134.5t2.5 -116.5q3 -20 9.5 -38t16 -32t23.5 -22t34 -8l-7 -28h-9z" />
    <glyph glyph-name="parenright" unicode=")" horiz-adv-x="273" 
d="M32 0h-9l7 28q19 0 37.5 8t36 22.5t33.5 32.5t30 37q36 51 65 116.5t47.5 134.5t25 135t-2.5 117q-4 20 -10 38t-16 32t-24 22t-34 8l8 28q39 0 67 -17.5t46 -47.5t27 -69.5t9 -82.5q0 -78 -23 -162q-18 -66 -50 -133.5t-74 -122t-92 -89t-104 -35.5z" />
    <glyph glyph-name="asterisk" unicode="*" horiz-adv-x="158" 
d="M280 663l16 -34l-19 -19l-16 34l-12 -44h-19l12 44l-35 -34l-9 19l35 34h-33l7 25h33l-17 34l19 19l16 -34l12 44h20l-12 -44l34 34l9 -19l-34 -34h32l-6 -25h-33z" />
    <glyph glyph-name="plus" unicode="+" horiz-adv-x="270" 
d="M202 212l-37 -137h-20l37 137h-103l8 27h102l36 136h21l-37 -136h103l-8 -27h-102z" />
    <glyph glyph-name="comma" unicode="," horiz-adv-x="108" 
d="M9 -77l-2 24q31 18 48 46q-14 -2 -21 10t-1 35q5 18 17.5 32t25.5 14t18.5 -14t0.5 -33q-11 -35 -33.5 -65t-52.5 -49z" />
    <glyph glyph-name="hyphen" unicode="-" horiz-adv-x="270" 
d="M82 221l2 8h225l-2 -8h-225z" />
    <glyph glyph-name="period" unicode="." horiz-adv-x="108" 
d="M76 85q15 0 19.5 -13t0.5 -29t-15.5 -29t-26.5 -13t-19.5 13t-0.5 29t15.5 29t26.5 13z" />
    <glyph glyph-name="slash" unicode="/" horiz-adv-x="332" 
d="M37 -4l-15 12l474 748l15 -13z" />
    <glyph glyph-name="zero" unicode="0" horiz-adv-x="332" 
d="M358 225q-12 -29 -32.5 -67.5t-46 -73.5t-54.5 -59.5t-59 -24.5t-46 25.5t-22.5 62t-5.5 77t4 69.5q4 36 11 72.5t17 72.5q19 72 50 146q12 29 33 69.5t46.5 77t55.5 62t60 25.5t46 -24.5t23 -59.5t6.5 -74t-3.5 -68q-4 -38 -11.5 -76.5t-17.5 -77.5q-22 -79 -54 -154z
M383 634q5 97 -20.5 97t-73.5 -97q-17 -36 -33 -76.5t-29.5 -82.5t-25 -84t-20.5 -81q20 26 43 45.5t46 39.5q28 23 52.5 47t42.5 56q7 34 11.5 68.5t6.5 67.5zM322 413q-14 -13 -28 -25l-28 -24q-28 -23 -52.5 -47t-42.5 -56q-7 -35 -11.5 -69t-6.5 -67q-5 -97 20.5 -97
t73.5 97q17 36 33 76.5t29.5 82.5t25 84t20.5 81q-8 -10 -16 -19t-17 -17z" />
    <glyph glyph-name="one" unicode="1" horiz-adv-x="217" 
d="M256 677q2 2 13.5 14.5t25.5 26.5q16 17 36 37l23 24l-171 -638q-3 -12 -7 -28.5t-8.5 -32.5t-8.5 -30t-6 -22h49l-8 -28h-169l8 28h48l37 136l126 469q-20 -24 -37 -54t-26 -64h-20q13 50 40.5 92t54.5 70z" />
    <glyph glyph-name="two" unicode="2" horiz-adv-x="341" 
d="M258 0h-127h-128q100 66 192 153t157 186q-23 -22 -48.5 -34.5t-51.5 -12.5q-34 0 -55 21t-31 54.5t-8.5 75t12.5 82.5q11 40 32 81.5t48.5 75.5t60 55t66.5 21t55.5 -21t31 -55t8 -75.5t-12.5 -81.5q-20 -76 -61 -148t-93.5 -136t-110.5 -118.5t-113 -95.5h85
q18 0 39.5 5t43.5 14.5t44 23.5t41 33l9 -20zM402 673q-6 57 -32.5 57t-62.5 -57q-21 -32 -36.5 -72t-25.5 -76q-10 -37 -15.5 -77t-2.5 -72q6 -57 32.5 -57t62.5 57q21 32 37 72t26 77q10 36 15.5 76t1.5 72z" />
    <glyph glyph-name="three" unicode="3" 
d="M321 379q35 -22 46.5 -71.5t-4.5 -110.5q-11 -41 -32 -77t-47.5 -62.5t-57 -42t-60.5 -15.5q-33 0 -57 19.5t-35 54.5q-9 -14 -16.5 -30.5t-13.5 -39.5h-20q8 32 20.5 56.5t26.5 44.5q14 21 31.5 40.5t44.5 47.5l-5 -29q-4 -21 -5.5 -44.5t1.5 -43t11.5 -33.5t23.5 -15
q14 -2 30.5 12.5t30.5 34.5q18 24 32 56t23 65.5t11.5 65.5t-1.5 57q-3 19 -11.5 32.5t-24.5 13.5v1q-8 0 -15.5 1t-18.5 5l11 43q11 -13 17.5 -17t14.5 -5h1q7 0 15 5q8 4 19 13t25 29q18 24 32 56t23 66t11.5 66t-1.5 56q-3 20 -12 34.5t-24 12.5q-16 -2 -31.5 -16
t-29.5 -35t-26 -46t-20 -49h-15q-8 17 -13.5 34t-8.5 40q34 48 74 74t78 26q30 0 52 -15.5t34.5 -42.5t14.5 -63t-9 -76q-17 -61 -55 -110.5t-85 -72.5z" />
    <glyph glyph-name="four" unicode="4" horiz-adv-x="329" 
d="M132 0l8 28h50l71 264h-160l3 14q5 16 14 35.5t16 33.5q44 87 111 168.5t155 169.5l-1 -1l66 66l-123 -458h51l-8 -28h-50l-71 -264h50l-7 -28h-175zM353 637q-29 -30 -62 -68.5t-64 -80.5t-57 -85t-40 -83h138l28 103q6 23 14 52.5t16 59.5t15 57t12 45z" />
    <glyph glyph-name="five" unicode="5" horiz-adv-x="332" 
d="M257 677l78 78l23 23l-28 -105q4 4 8.5 9t10.5 11q11 11 23.5 22.5t25.5 21.5q12 10 23.5 16t19 4t9.5 -14.5t-5 -40.5h-21q6 23 4 26t-6 1q-7 -3 -16.5 -11t-17.5 -16l-69 -69l-50 -187q-13 -13 -27.5 -30.5t-27 -37t-23 -40.5t-15.5 -42h-21l90 337q-20 -24 -37.5 -54
t-26.5 -64h-21q14 49 42 91.5t55 70.5zM166 0q-41 0 -64 31t-28 77q-6 -12 -10 -31h-21q3 12 7 23t10.5 24.5t16.5 31t25 43.5l-3 -10q13 17 29 35t40 42q-16 -59 -23.5 -103t-3.5 -79q6 -57 32.5 -57t62.5 57q21 32 36.5 72t25.5 77q10 36 15.5 76t2.5 72q-2 20 -10.5 39
t-29.5 17l8 29q37 0 59.5 -21t32.5 -55t8.5 -75.5t-12.5 -81.5q-11 -41 -31.5 -82.5t-48 -75t-60 -54.5t-66.5 -21z" />
    <glyph glyph-name="six" unicode="6" horiz-adv-x="332" 
d="M166 0q-34 0 -55 21t-30.5 54.5t-8 75t12.5 82.5q2 6 3.5 12t3.5 12q24 76 59.5 150t80.5 140t100 121t120 93l3 -25q-96 -55 -167.5 -145.5t-122.5 -199.5q28 33 60.5 54t65.5 21q34 0 55 -21t30.5 -55t8 -75.5t-12.5 -81.5q-11 -41 -31.5 -82.5t-48 -75t-60 -54.5
t-66.5 -21zM316 381q-6 57 -32.5 57t-62.5 -57q-20 -32 -36 -72t-26 -76q-10 -37 -15.5 -77t-2.5 -72q6 -57 32.5 -57t62.5 57q21 32 36.5 72t25.5 77q10 36 15.5 76t2.5 72z" />
    <glyph glyph-name="seven" unicode="7" horiz-adv-x="335" 
d="M94 0h-75l409 730h-85q-26 0 -61 -12.5t-65 -42.5l-9 20q31 31 60 43.5t56 16.5t53 3.5t49 -0.5h79h15z" />
    <glyph glyph-name="eight" unicode="8" 
d="M166 0q-30 0 -52 15.5t-34 42t-14 62t9 76.5q17 61 55 110.5t85 72.5q-35 22 -47 71.5t5 110.5q11 41 32 77t47.5 62.5t56.5 42t60 15.5t52 -15.5t34.5 -42t14 -62.5t-9.5 -77q-16 -61 -54 -110.5t-85 -71.5q35 -23 46.5 -72.5t-4.5 -110.5q-11 -41 -32 -76.5t-47.5 -62
t-57 -42t-60.5 -15.5zM397 683q-8 48 -35 48t-60 -48q-19 -26 -33 -58t-22 -64q-8 -31 -12 -63.5t1 -58.5q8 -47 35 -47t61 47q18 26 32 58.5t22 63.5q9 32 12.5 64t-1.5 58zM299 318q-8 47 -35 47t-60 -47q-19 -26 -33 -58.5t-22 -63.5t-12 -63.5t1 -58.5q8 -47 35 -47
t61 47q19 26 33 58.5t22 63.5t11.5 63.5t-1.5 58.5z" />
    <glyph glyph-name="nine" unicode="9" 
d="M443 500q-24 -76 -59.5 -150t-80.5 -140t-100.5 -121t-119.5 -92l-2 24q95 55 166.5 145.5t122.5 199.5q-28 -33 -60.5 -54t-65.5 -21q-34 0 -55 21t-30.5 55t-8 75t12.5 82t31.5 82.5t48 75.5t60 55t66.5 21t55 -21t31 -55t8.5 -75.5t-12.5 -82.5l-4 -12zM394 673
q-6 57 -32 57t-63 -57q-20 -32 -36 -72t-26 -77q-10 -36 -15.5 -76t-2.5 -72q6 -57 32.5 -57t62.5 57q21 32 37 72t26 76q10 37 15.5 77t1.5 72z" />
    <glyph glyph-name="colon" unicode=":" horiz-adv-x="108" 
d="M177 458q15 0 18.5 -15.5t-2 -34t-17 -34t-26.5 -15.5t-18.5 15.5t1.5 34t17 34t27 15.5zM80 99q15 0 18.5 -15.5t-1.5 -34t-16.5 -34t-26.5 -15.5t-18.5 15.5t1.5 34t16.5 34t26.5 15.5z" />
    <glyph glyph-name="semicolon" unicode=";" horiz-adv-x="108" 
d="M176 458q15 0 18.5 -15.5t-1.5 -34.5t-16.5 -34.5t-26.5 -15.5t-18.5 15.5t1.5 34.5t16.5 34.5t26.5 15.5zM8 -78l-1 25q33 22 50 51q-14 -3 -21 11t-1 38q5 20 18 35t27 15q13 0 18 -15.5t-1 -35.5q-11 -38 -34 -70.5t-55 -53.5z" />
    <glyph glyph-name="less" unicode="&#x3c;" horiz-adv-x="164" 
d="M149 68l-69 157l153 157l9 -19l-135 -138q15 -33 29.5 -66.5t31.5 -71.5z" />
    <glyph glyph-name="equal" unicode="=" horiz-adv-x="270" 
d="M117 352l7 28h225l-7 -28h-225zM42 71l7 27h225l-7 -27h-225z" />
    <glyph glyph-name="greater" unicode="&#x3e;" horiz-adv-x="164" 
d="M26 41l21 38q-1 1 -3 5q-1 2 -1 3l134 138l-60 138l19 20l69 -158z" />
    <glyph glyph-name="question" unicode="?" 
d="M375 373q-26 -35 -50.5 -61.5t-55.5 -52.5q-28 -23 -57 -54t-39 -67q-2 -11 -2 -23.5t5 -24.5l-20 -19q-8 16 -7.5 34t4.5 33q6 23 18.5 44t28 39t32 33t30.5 27q6 5 11.5 10t11.5 10q-22 -8 -40 -8q-35 0 -56 21t-30.5 54.5t-8 75t12.5 82.5q11 40 31.5 81.5t48 75.5
t60 55t67.5 21q34 0 55 -21t30.5 -55t8 -75.5t-12.5 -81.5q-12 -45 -30.5 -81t-45.5 -72zM193 101q18 0 23 -16t0 -34.5t-18.5 -34.5t-31.5 -16t-23 16t0.5 34.5t18.5 34.5t31 16zM394 674q-2 23 -9 40t-24 17q-15 0 -31.5 -18t-30.5 -39q-20 -32 -36 -71.5t-26 -76.5
t-15.5 -77t-1.5 -72q6 -57 32 -57t63 57q19 30 35 69t27 80t15.5 79.5t1.5 68.5z" />
    <glyph glyph-name="at" unicode="@" horiz-adv-x="445" 
d="M460 219q9 33 7.5 63t-9.5 54l-83 -311h51l-7 -27h-126l65 244q10 35 13.5 70t-0.5 64q-7 57 -33 57t-63 -57q-20 -32 -36 -72t-26 -76q-10 -35 -15.5 -75t-1.5 -72q3 -23 9.5 -38.5t23.5 -17.5q5 -1 15 4.5t30 21.5l-13 -46q-14 -5 -23 -5q-4 -1 -7.5 -1.5t-8.5 -0.5
q-36 -3 -57.5 17.5t-31 54.5t-8 76t12.5 82t31.5 81.5t48.5 75t60.5 54.5t67.5 21q19 0 35 -7.5t28 -21.5l13 49l18 -39q8 -15 15.5 -31t17.5 -36l-1 -1q2 -2 2.5 -5t1.5 -5q-6 61 -35.5 101.5t-82.5 40.5q-41 0 -80.5 -24t-73.5 -63t-60 -88.5t-40 -101.5
q-14 -51 -14 -100.5t13 -88.5t39.5 -62.5t67.5 -23.5h197l-8 -28h-197h-1q-46 0 -75.5 26.5t-44 69.5t-13.5 97t16 110t43.5 111t66 98t81.5 69.5t90 26.5t76 -27t44 -71t13 -100.5t-17 -115.5h-21z" />
    <glyph glyph-name="A" unicode="A" horiz-adv-x="608" 
d="M406 0l7 27h47l-9 264h-194l-150 -264h47l-7 -27h-125l8 27h55l381 671q6 11 13 22.5t12 21.5q6 11 13 22h10l23 -737h55l-7 -27h-179zM441 615l-168 -296h178z" />
    <glyph glyph-name="B" unicode="B" horiz-adv-x="501" 
d="M384 662h-21q12 45 38 71t60 26l-7 -28q-52 0 -70 -69zM305 0h-279l7 28h52l162 606q-20 -24 -38 -54t-27 -64h-21q14 50 42 92t57 71l53 53q21 21 48 47l-130 -483l-71 -268h160q20 3 39.5 20t36.5 38q23 30 41 68.5t29 79t13.5 79t-4.5 68.5q-5 25 -19.5 41.5
t-49.5 16.5q-5 1 -8.5 1h-8.5q-19 0 -34 -4q-15 -5 -27.5 -18t-21.5 -48h-21q12 46 37 70t54 27q11 1 19.5 10.5t18.5 24.5q13 19 23.5 44.5t17.5 52.5t10 52.5t1 44.5q-2 14 -7 24.5t-20 10.5l8 28q27 0 47 -12.5t31 -34.5t12.5 -51t-7.5 -62q-11 -41 -34 -75.5t-53 -56.5
h4l-1 -2q32 -4 55.5 -23.5t36.5 -50.5t14 -71.5t-11 -85.5q-13 -48 -38 -91t-57 -74.5t-68.5 -50t-72.5 -18.5z" />
    <glyph glyph-name="C" unicode="C" horiz-adv-x="501" 
d="M521 227q-24 -45 -55 -86t-66 -72.5t-73 -50t-76 -18.5q-39 0 -67 18.5t-46 50t-27 73t-9 86.5q1 36 6 74.5t16 76.5q21 79 60 152q24 45 54.5 86t65.5 72.5t73 50.5t77 19q62 0 98.5 -49.5t46.5 -127.5q-19 -6 -33.5 -16.5t-34.5 -31.5q1 37 -2.5 72t-13.5 63t-26.5 45
t-41.5 17q-35 0 -70 -29.5t-64 -71.5q-39 -54 -68 -121t-46 -130q-17 -62 -24 -129.5t3 -121.5q4 -20 10.5 -38t16.5 -32t23 -22t30 -8h1q32 0 61.5 22t55.5 55.5t47.5 73t37.5 75.5q16 5 31.5 18t29 31.5t24 40.5t16.5 44h21l-3 -10q-11 -38 -25.5 -76.5t-33.5 -74.5z" />
    <glyph glyph-name="D" unicode="D" horiz-adv-x="501" 
d="M384 662h-21q12 45 38 71t60 26l-7 -28q-52 0 -70 -69zM260 677q2 2 17.5 18t33.5 34q21 21 48 47l-200 -749h105q16 0 33 8.5t33.5 23t32 32.5t29.5 37q37 51 66 117t47.5 134.5t24.5 134.5t-3 117q-8 40 -27 70t-60 31l7 26h8q55 -1 88 -36t47 -89t11 -121t-21 -133
t-50 -132t-75 -119.5t-94.5 -88.5t-107.5 -38q-14 -1 -28.5 -0.5t-28.5 0.5h-169l6 26h52l163 610q-21 -26 -39 -56t-28 -64h-19q14 48 41.5 90t56.5 70z" />
    <glyph glyph-name="E" unicode="E" horiz-adv-x="500" 
d="M642 655q-20 41 -63.5 58.5t-94.5 17.5h-136l-90 -338h157l40 -84l-20 -19q-10 20 -26 34.5t-35 23.5t-39.5 13.5t-39.5 4.5h-45l-73 -273q13 -24 34.5 -44.5t46.5 -20.5q14 0 28.5 -0.5t34.5 0.5q38 1 86 19.5t87 56.5l10 -20l-86 -84h-113h-54q-29 0 -52 20t-37 46
q-13 23 -23 44.5t-21 43.5v1q-12 29 -18 70.5t7 90.5h21q-9 -34 -7 -64t9 -54l143 533h-52l8 28h280h113l40 -84z" />
    <glyph glyph-name="F" unicode="F" horiz-adv-x="497" 
d="M638 654q-17 36 -46 52t-64 21t-72 4t-67 -1h-44l-91 -337h61v-1q12 0 28.5 0.5t31.5 0.5h37l40 -84l-20 -20q-10 20 -26 34.5t-35 23.5t-39.5 13.5t-39.5 4.5h-45l-91 -338h52l-8 -27h-178l8 27h51l80 297q5 20 14 54.5t20 75t22.5 83.5t22 81.5t18.5 68.5t12 43h-52
l8 28h296h96l40 -84z" />
    <glyph glyph-name="G" unicode="G" horiz-adv-x="501" 
d="M555 365l29 28q-20 -73 -54 -143.5t-77.5 -126t-94.5 -89.5t-106 -34h-3q-56 0 -89 34.5t-47 89t-10.5 121.5t21.5 133t50 132t75 120t94.5 89t107.5 38q26 1 48 -8t39 -26t30 -40.5t21 -50.5q-11 -23 -24 -42.5t-34 -46.5q0 36 -4 69.5t-14 59.5t-26 41.5t-40 15.5
q-35 0 -70 -29.5t-64 -70.5q-39 -54 -68 -121t-46 -130t-24 -130t3 -121q8 -40 26.5 -70t53.5 -30t69.5 30t63.5 70q37 51 65 113.5t45 123.5h-98q-20 0 -37 -17t-26 -52h-21q12 45 37 71t54 26h109q20 0 36.5 17t25.5 52h21l-23 -87q-1 -1 -1 -2.5t-1 -3.5t-1 -4z" />
    <glyph glyph-name="H" unicode="H" horiz-adv-x="554" 
d="M353 0l8 28h51l91 337h-253l-90 -337h52l-8 -28h-178l7 28h52l162 606q-20 -25 -38 -54.5t-28 -63.5h-20q14 49 42.5 91.5t57.5 71.5q2 3 18.5 18.5t34.5 33.5l47 47l-103 -385h252l91 338h-52l8 28h178l-7 -28h-52l-188 -703h51l-7 -28h-179z" />
    <glyph glyph-name="I" unicode="I" horiz-adv-x="214" 
d="M119 0h-41h-56l8 28h49l188 702h-49l8 28h168l-7 -28h-49l-188 -702h49l-8 -28h-72z" />
    <glyph glyph-name="J" unicode="J" horiz-adv-x="498" 
d="M620 731l-93 -348l-1 -4q-10 -35 -22 -68t-29 -66q-23 -47 -54.5 -91.5t-68 -78.5t-76.5 -54.5t-80 -20.5t-69.5 21.5t-48.5 57.5q-10 -15 -18.5 -33t-15.5 -42h-20q8 33 23.5 61t42.5 66l-1 -2q6 7 13 15t18 21v-1l8 9h7l7 -15l-19 -21q7 -51 27.5 -78.5t49 -29.5
t64 22.5t73.5 76.5q41 56 69 123t46 133l93 347h-52l8 28h178l-8 -28h-51z" />
    <glyph glyph-name="K" unicode="K" horiz-adv-x="498" 
d="M258 678l103 101l-157 -585l268 265l47 175q-20 -24 -38 -54t-27 -64h-21q14 49 41.5 91.5t56.5 70.5l102 101l-48 -180q-10 -35 -29.5 -66t-42.5 -59q-12 -14 -24.5 -27t-24.5 -26q-11 -11 -21.5 -21t-20.5 -20l30 -63q13 -28 19.5 -71t-4.5 -85l-35 -132h51l-7 -28
h-178l7 28h106l36 132q2 10 3 20t1 21q2 49 -15 86.5t-34 71.5l-212 -209q-11 -11 -23.5 -25.5t-24 -31t-21 -33.5t-15.5 -32h105l-7 -28h-178l7 28h52l162 605q-20 -24 -38 -53.5t-27 -64.5h-21q13 49 41.5 91t55.5 71z" />
    <glyph glyph-name="L" unicode="L" horiz-adv-x="500" 
d="M418 0h-75h-318l8 28h51l163 606q-20 -25 -38.5 -54.5t-27.5 -64.5h-20q13 50 41.5 92.5t57.5 70.5l53 53q21 21 48 47l-201 -750h152q19 0 42 4t47.5 13t48 23.5t44.5 35.5l9 -20z" />
    <glyph glyph-name="M" unicode="M" horiz-adv-x="664" 
d="M461 0l8 27h52l160 598q-42 -60 -81.5 -124t-75.5 -129l-177 -310q-7 -12 -14.5 -24.5t-13.5 -23.5q-7 -12 -14 -25l-8 7l-22 675l-173 -644h52l-7 -27h-125l8 27h51l189 703h-52l7 27h75h50l20 -615l137 241q42 73 96.5 159.5t137.5 195.5l-6 -11q11 11 24 20.5t26 9.5
h59l-7 -27h-52l-188 -703h51l-7 -27h-180zM514 380h-1h1v-1v1h1v-1v1l-1 -1h-1zM512 380h2h1l-1 -1l1 -1l1 1v-1zM512 379l2 1v-1h-2z" />
    <glyph glyph-name="N" unicode="N" horiz-adv-x="664" 
d="M462 0l7 28h106q5 33 -1 66t-17 56l-236 488l-163 -610h52l-8 -28h-76v1q-13 -1 -30 -1h-34h-39l7 28h52l201 751l47 -99l236 -486l143 537h-51l7 28h76h45h59l-8 -28h-52l-188 -703h52l-8 -28h-179z" />
    <glyph glyph-name="O" unicode="O" horiz-adv-x="501" 
d="M304 9q-17 -6 -26 -7q-5 -1 -11 -1t-14 -1h-5q-8 1 -12.5 1t-9.5 1t-9.5 2.5t-11.5 3.5q-41 16 -64.5 55t-32.5 90t-4 110t20 116t42.5 116t63.5 110t80 90t93 55l14 3.5t11 2.5t10 1t13 1h5q8 -1 13.5 -1t10.5 -2q10 -2 22 -7q40 -17 62.5 -55.5t31 -89.5t4 -109.5
t-19.5 -114.5t-41.5 -114.5t-62.5 -109.5t-79.5 -90t-92.5 -56zM446 730q-35 0 -69.5 -30t-63.5 -70q-37 -51 -66 -116.5t-47.5 -134.5t-24.5 -134.5t3 -116.5q4 -20 10.5 -38.5t16 -32.5t23 -22t30.5 -8t34.5 8.5t35 22.5t33.5 32t30 38q37 51 66 116.5t47.5 134.5
t24.5 134.5t-3 116.5q-8 40 -26.5 70t-53.5 30z" />
    <glyph glyph-name="P" unicode="P" horiz-adv-x="442" 
d="M324 292q-28 0 -39 26t1 71h21q-18 -68 33 -69q19 3 39 20t37 38q23 30 40.5 68.5t28.5 79t14 79t-4 68.5q-6 23 -21 40.5t-49 16.5l1 1h-38h-44l-188 -703h51l-7 -28h-177l7 28h51l188 703h-51l8 28h75v-1q7 0 14.5 0.5t14.5 0.5h15h51h71l-2 -2q32 -4 55.5 -23.5
t36.5 -50.5t14 -71.5t-11 -85.5q-13 -48 -38 -91t-57 -74.5t-68.5 -50t-72.5 -18.5z" />
    <glyph glyph-name="Q" unicode="Q" horiz-adv-x="501" 
d="M432 100q3 -20 2 -43t-9 -54h-21q12 45 6 82.5t-18 64.5q-12 28 -19.5 71t6.5 94h21q-12 -43 -5.5 -81.5t17.5 -64.5l3 -6q30 50 52.5 105t37.5 111q17 63 24 130t-3 121q-8 40 -27 70t-53 30q-35 0 -69.5 -30t-63.5 -70q-37 -51 -66 -117t-47.5 -134.5t-24.5 -134.5
t3 -117q8 -40 27 -70t54 -30h6q27 5 53 24t59 57q2 -20 2.5 -31.5t0.5 -25.5q-66 -48 -122 -51h-7h-3q-38 -3 -65 12t-44.5 42.5t-26.5 65.5t-10 81t4.5 89t17.5 89q21 77 59 151q24 45 55 86t66 72.5t73 50.5t77 19q36 0 63.5 -17t45.5 -46t27.5 -67.5t11.5 -80.5
q1 -41 -5 -83t-17 -85q-20 -75 -57.5 -148.5t-90.5 -130.5z" />
    <glyph glyph-name="R" unicode="R" horiz-adv-x="495" 
d="M349 0l7 27h51q9 37 13 72.5t1 67t-13.5 57.5t-29.5 44q-11 11 -24.5 17.5t-27.5 6.5q-29 0 -40.5 25.5t1.5 70.5h20q-8 -34 -1 -52.5t27 -16.5q26 2 50 22.5t44.5 50.5t35.5 65.5t24 67.5q10 38 13.5 77t-4.5 70q-6 26 -20 42t-49 16h-39h-43l-189 -703h52l-8 -27h-178
l8 27h51l188 703h-51l8 28h75h44h106q36 0 62.5 -18.5t41.5 -50t17.5 -74t-10.5 -90.5q-11 -38 -29 -73t-41.5 -64.5t-51.5 -51t-57 -33.5q26 -17 40 -47t18.5 -67t0.5 -78.5t-14 -83.5h52l-8 -27h-123z" />
    <glyph glyph-name="S" unicode="S" horiz-adv-x="501" 
d="M101 292l5 18l18 68l3 10h20q-18 -69 36 -69v-1q23 -5 31.5 -29.5t-2.5 -66.5h-21q15 60 -15 68q-12 -49 -13.5 -96.5t9.5 -86.5q11 -35 32 -57.5t54 -22.5q32 0 65.5 22.5t62.5 57.5q35 42 60 93.5t39 104.5q12 46 15.5 95.5t-4.5 90t-30 67t-59 26.5q-17 0 -30 10.5
t-15 33.5t3.5 42.5t19.5 42.5q17 28 40 38.5t41.5 3.5t27.5 -30.5t-2 -63.5h-20q9 34 1.5 51.5t-27.5 17.5q-22 0 -37.5 -18t-22.5 -41q-3 -11 -2.5 -21.5t5 -19t14.5 -14t28 -5.5l-1 -1q43 -3 75 -28.5t49.5 -67t20 -95.5t-13.5 -114q-17 -64 -49.5 -119t-74 -95.5
t-89 -64.5t-95.5 -26q-47 -2 -81.5 21t-55 63t-25 94t9.5 114z" />
    <glyph glyph-name="T" unicode="T" horiz-adv-x="556" 
d="M697 655q-10 20 -26 34.5t-35 23.5t-39.5 13.5t-39.5 4.5h-46l-188 -703h52l-8 -28h-178l7 28h52l188 703h-45q-38 0 -88.5 -17.5t-92.5 -58.5l-10 20l86 84h114h68h44h68h97l40 -84z" />
    <glyph glyph-name="U" unicode="U" horiz-adv-x="611" 
d="M259 677v1l102 100l-107 -399q-8 -32 -14.5 -65t-9.5 -65t-2 -63t6 -58q4 -20 10.5 -38t16 -32t23 -22t30.5 -8q18 0 35.5 8t35 22t33.5 32t30 38q39 54 68 121t46 130l95 352h-52l7 28h77l-1 -1q7 0 15 0.5t15 0.5h15h58l-7 -28h-52l-98 -365q-21 -73 -57 -140
q-24 -45 -55 -85.5t-66 -72t-73 -50t-76 -18.5q-39 0 -67 18.5t-46.5 50t-27.5 72t-9 85.5q0 33 5 68.5t13 70.5l72 269q-20 -24 -38.5 -55t-26.5 -63h-21q6 24 17 47t24.5 44t28 38.5t28.5 31.5z" />
    <glyph glyph-name="V" unicode="V" horiz-adv-x="664" 
d="M791 734q-2 -33 -14.5 -70.5t-32.5 -68.5q-99 -148 -199 -298t-209 -310l-61 747h-56l8 28h179l-7 -28h-46l50 -613l326 487q18 28 29 62.5t11 63.5h-56l8 28h124l-7 -28h-47z" />
    <glyph glyph-name="W" unicode="W" horiz-adv-x="1001" 
d="M1129 736q-2 -33 -14.5 -70.5t-32.5 -68.5q-100 -148 -200.5 -298t-209.5 -310l-37 438l-250 -372q-7 -11 -14.5 -22t-14.5 -21q-8 -11 -16 -23l-64 747h-56l7 28h181l-7 -28h-46l52 -612l225 334l-24 278h-56l8 28h120h61l-8 -28h-46l52 -612l328 487q18 27 29 61.5
t10 63.5h-56l8 28h126l-8 -28h-47z" />
    <glyph glyph-name="X" unicode="X" horiz-adv-x="495" 
d="M398 0h1h-45h-59l7 28h45l-30 289l-207 -289h44l-8 -28h-123l7 28h56l228 319l-40 384h-56l8 28h178l-8 -28h-45l31 -289l206 289h-43l7 28h124l-8 -28h-56l-227 -319l40 -384h55l-7 -28h-75z" />
    <glyph glyph-name="Y" unicode="Y" horiz-adv-x="551" 
d="M668 730l-254 -355l-93 -348h51l-7 -27h-179l8 27h51l93 348l-64 355h-56l8 28h67l-1 -1q7 0 16 0.5t17 0.5h19h60l-7 -28h-44l59 -324l232 324h-44l8 28h124l-8 -28h-56z" />
    <glyph glyph-name="Z" unicode="Z" horiz-adv-x="507" 
d="M117 28h199q38 0 88.5 17.5t92.5 58.5l10 -20l-86 -84h-331h-74l577 731h-199q-38 0 -88.5 -17.5t-92.5 -58.5l-9 19l85 84h130h276z" />
    <glyph glyph-name="bracketleft" unicode="[" horiz-adv-x="161" 
d="M23 0l203 759h62h53l-7 -28h-47l-188 -703h47l-8 -28h-115z" />
    <glyph glyph-name="backslash" unicode="\" horiz-adv-x="332" 
d="M292 -4l-73 747l22 13l73 -749z" />
    <glyph glyph-name="bracketright" unicode="]" horiz-adv-x="161" 
d="M113 0h-91l8 27h47l188 703h-47l8 28h115l-203 -758h-25z" />
    <glyph glyph-name="asciicircum" unicode="^" horiz-adv-x="217" 
d="M366 669l-62 59l-94 -59l-6 20l107 68l71 -68z" />
    <glyph glyph-name="underscore" unicode="_" horiz-adv-x="326" 
d="M22 0l2 7h282l-2 -7h-282z" />
    <glyph glyph-name="grave" unicode="`" horiz-adv-x="107" 
d="M237 593q-20 18 -27.5 49t2.5 67q6 22 19 33.5t25 11.5t18.5 -11.5t0.5 -34.5q-6 -22 -20.5 -35t-27.5 -11q4 -26 24 -46z" />
    <glyph glyph-name="a" unicode="a" horiz-adv-x="389" 
d="M404 219q9 33 7.5 62.5t-9.5 53.5l-82 -308h50l-7 -27h-115h-10l61 229q10 36 15.5 75t1.5 71q-7 56 -33 56t-63 -56q-20 -32 -36 -71t-26 -75q-9 -36 -14.5 -75t-1.5 -71q2 -17 6.5 -30t13.5 -18.5t22.5 -2t34.5 20.5l-12 -46q-14 -5 -23 -6t-17 -1q-35 0 -56 20.5
t-31 53.5t-8.5 74t12.5 81q10 40 31 81t48 74t59.5 53.5t67.5 20.5q39 0 63 -29l13 49l19 -39q13 -30 32 -67h-1q11 -28 16 -67t-7 -86h-21z" />
    <glyph glyph-name="b" unicode="b" horiz-adv-x="389" 
d="M221 0q-8 0 -16 1t-19 6l12 47q12 -17 24 -21t23.5 1.5t23 18.5t23.5 31q20 32 36 72t26 77q10 36 15.5 76t1.5 72q-6 57 -32.5 57t-62.5 -57q-22 -33 -37.5 -73.5t-26.5 -79.5l-61 -228h-27h-99l8 27h51l60 224q6 23 15.5 58.5t18.5 70.5q11 40 23 84l45 169
q-20 -24 -38 -54t-27 -64h-21q14 49 42 91.5t57 70.5q3 3 19 19.5t34 34.5l47 47l-91 -342q39 30 78 30q34 0 55.5 -21t31.5 -55t8.5 -75.5t-12.5 -81.5q-11 -41 -32 -82.5t-48.5 -75t-60.5 -54.5t-67 -21z" />
    <glyph glyph-name="c" unicode="c" 
d="M369 222q-11 -39 -31.5 -79t-47.5 -71.5t-58.5 -51.5t-65.5 -20t-55 20.5t-31 53.5t-8.5 74t12.5 81q10 40 31 80.5t48 73.5t59.5 54t66.5 21q39 0 62 -30t31 -79q-18 -13 -33.5 -24.5t-37.5 -29.5q3 24 3.5 47.5t-2.5 42.5t-10 31t-20 14q-7 1 -15.5 -3.5t-16.5 -12.5
t-16 -18.5t-15 -20.5q-19 -29 -34.5 -67.5t-26.5 -79t-15.5 -78.5t-1.5 -67q7 -62 38.5 -54.5t69.5 76.5q76 26 104 134h21z" />
    <glyph glyph-name="d" unicode="d" horiz-adv-x="386" 
d="M248 0h-10l66 247q9 35 13 70.5t1 64.5q-7 57 -33 57t-63 -57q-21 -32 -36.5 -72t-26.5 -77q-10 -36 -15.5 -76t-1.5 -72q2 -18 6.5 -31t13.5 -18.5t22.5 -2t34.5 20.5l-12 -46q-14 -5 -23 -6.5t-17 -1.5q-34 0 -55 21t-31 55t-8.5 75t12.5 82t31.5 82.5t48 75t60 54.5
t67.5 21q39 0 63 -29l53 197q-20 -25 -38 -54.5t-27 -63.5h-21q14 49 41.5 91t56.5 71l101 101l-89 -331q-5 -20 -14.5 -56.5t-19.5 -72.5q-11 -42 -24 -90l-54 -201h51l-8 -28h-115z" />
    <glyph glyph-name="e" unicode="e" 
d="M248 212q-30 -5 -56.5 -14t-46.5 -29q-4 -22 -5 -44.5t1 -41.5q7 -60 37 -55.5t68 71.5h66q-58 -72 -108.5 -88.5t-83.5 7.5t-44.5 80.5t8.5 130.5q10 40 31 80.5t48 73.5t59.5 54t66.5 21q35 0 56 -21.5t30 -56t7 -78t-14 -87.5q-28 0 -58 0.5t-62 -3.5zM314 375
q-6 56 -32.5 56t-62.5 -56q-23 -37 -40.5 -83.5t-27.5 -89.5q35 25 76.5 32.5t73.5 7.5q8 34 12 69t1 64z" />
    <glyph glyph-name="f" unicode="f" horiz-adv-x="315" 
d="M446 679q-11 55 -37 50t-57 -54q-21 -33 -37 -73t-26 -78l-19 -70q13 6 28.5 10t29 1.5t22.5 -12.5t11 -31q0 -10 -1 -21.5t-6 -30.5h-20q4 14 5 23.5t0 16.5q-2 15 -9 21.5t-18 7t-24 -3.5t-26 -11l-106 -396h50l-7 -27h-174l7 27h50l85 318l-82 -83l22 38q-1 1 -3 5
q-1 2 -2 3l76 77l19 71h1q5 18 9 35.5t9 35.5l3 12h1q17 55 48.5 104.5t70 79.5t78.5 33t73 -34z" />
    <glyph glyph-name="g" unicode="g" horiz-adv-x="388" 
d="M2 -78h-1l5 18l21 77h21q-19 -68 35 -68v-1q23 -5 31 -29t-3 -66h-21q8 30 3.5 46t-18.5 21q-8 -34 -12 -69t-1 -64q6 -57 32.5 -57t62.5 57q22 34 37.5 74t26.5 79l23 86q5 21 14.5 55t18.5 66q11 38 21 79q10 37 15 76.5t2 71.5q-6 57 -32.5 57t-63.5 -57
q-20 -32 -36 -72t-26 -76q-10 -37 -15.5 -77t-1.5 -72q1 -10 3.5 -20t6.5 -18t9.5 -13t13.5 -5q7 1 15.5 6t28.5 21l-13 -47q-13 -4 -24 -5.5t-32 -1.5l2 2q-30 4 -48 26.5t-25.5 55t-5.5 71.5t12 77q11 40 31.5 81.5t48 75t60 54.5t67.5 21q19 0 34.5 -7.5t27.5 -21.5
l13 49l19 -40h-1q4 -8 9 -19t10 -20l10 -22q12 -27 18 -70t-7 -91h-21q9 32 7.5 63t-8.5 55q-8 -29 -15 -56.5t-15 -56.5l-63 -231q-3 -10 -6 -21.5t-6 -22.5q-4 -12 -6 -25q-12 -39 -33 -78t-47.5 -70t-58 -50.5t-64.5 -19.5t-53.5 19.5t-30.5 50.5t-10 70.5t9 78.5z" />
    <glyph glyph-name="h" unicode="h" horiz-adv-x="442" 
d="M242 0l7 27h52l6 23l68 255l20 74q4 16 2 30t-10 21q-8 8 -20 8t-27 -5.5t-30.5 -15t-30.5 -21t-28 -23.5l-92 -346h51l-7 -27h-178l8 27h51l162 606q-20 -24 -38 -54t-27 -64h-21q14 50 42.5 92.5t57.5 70.5l100 100l-99 -368q28 23 59 40.5t60 15.5q31 -2 52 -21
t25 -60q2 -17 0 -38t-7 -41l-75 -279h52l-8 -27h-177z" />
    <glyph glyph-name="i" unicode="i" horiz-adv-x="217" 
d="M273 607q18 0 22.5 -15.5t-0.5 -34.5t-18 -34.5t-31 -15.5t-22.5 15.5t0.5 34.5t18 34.5t31 15.5zM25 0l8 27h48l84 311q-20 -24 -37 -53.5t-26 -63.5h-20q13 49 40.5 91t55.5 71q2 3 18 18.5t33 33.5q20 21 46 47l-122 -455h49l-8 -27h-169z" />
    <glyph glyph-name="j" unicode="j" horiz-adv-x="332" 
d="M433 602q18 0 23 -16t0 -34.5t-18.5 -34.5t-31.5 -16t-23 16t0.5 34.5t18.5 34.5t31 16zM310 3l-23 -86h-1q-12 -39 -32.5 -78t-47.5 -70.5t-58 -51t-64 -19.5t-54 21t-30 54.5t-8 75t12 82.5q10 37 27.5 74t40.5 68.5t51 54t59 31.5l6 2l11 -23q-23 -14 -42.5 -38.5
t-35 -54t-26.5 -60t-18 -54.5q-10 -36 -15.5 -76.5t-1.5 -72.5q6 -57 32 -57t62 57q21 32 37 72t26 77l60 223l47 176q-20 -24 -37.5 -53.5t-26.5 -64.5h-21q14 50 42 92t56 71q20 20 38.5 39t37.5 38l23 24z" />
    <glyph glyph-name="k" unicode="k" horiz-adv-x="386" 
d="M241 0l7 27h51l35 133q9 32 4.5 66t-14.5 60l-136 -136q-23 -23 -47 -56.5t-36 -66.5h104l-7 -27h-177l8 27h51l162 606q-20 -24 -38 -54t-27 -64h-20q13 50 41.5 92.5t56.5 70.5l100 100l-156 -585l123 123q26 26 52 65t37 81h21q-13 -48 -39.5 -87.5t-52.5 -68.5
q11 -29 16.5 -67.5t-5.5 -78.5l-35 -133h50l-7 -27h-122z" />
    <glyph glyph-name="l" unicode="l" horiz-adv-x="217" 
d="M25 0l8 28h49l162 605q-20 -24 -37 -54t-26 -63h-20q13 49 40.5 91.5t54.5 70.5q3 3 18.5 19t33.5 34l46 48l-201 -751h49l-8 -28h-169z" />
    <glyph glyph-name="m" unicode="m" horiz-adv-x="667" 
d="M465 0l7 27h52l6 23l67 250l20 73q4 16 2 30t-10 21q-11 7 -21 7q-15 0 -31 -6.5t-32.5 -17t-33 -23.5t-30.5 -27q0 -13 -2 -27.5t-5 -28.5l-74 -274h52l-7 -27h-180l8 27h51l93 346q7 26 -1 42t-28 16q-25 0 -57.5 -20t-58.5 -44l-91 -340h51l-7 -27h-179l7 27h52
l82 309q-20 -24 -38 -53.5t-27 -63.5h-21q14 49 42 90.5t56 69.5q3 2 15.5 14.5l26.5 26.5q17 16 37 35l23 23l-20 -75q26 22 57 39t57 17q34 0 56 -18.5t28 -56.5q30 28 69 51t85 24l-2 -2q28 -4 46 -22.5t22 -55.5q2 -17 0.5 -37.5t-6.5 -40.5l-73 -274h52l-8 -27h-179z
" />
    <glyph glyph-name="n" unicode="n" horiz-adv-x="442" 
d="M242 0l8 28h51l92 345q5 16 3 30q-1 14 -10 21q-12 9 -29 6.5t-35.5 -11.5t-37.5 -23t-34 -29l-91 -339h51l-7 -28h-177l7 28h51l83 308q-20 -24 -38 -53.5t-27 -62.5h-21q14 48 42 89t55 70v-1l12 12l27 27q17 17 39 38l24 23l-20 -74q27 23 58.5 40t59.5 15
q32 -2 52.5 -20.5t24.5 -59.5q2 -17 0.5 -37.5t-6.5 -39.5l-73 -274h51l-8 -28h-177z" />
    <glyph glyph-name="o" unicode="o" 
d="M166 0q-34 0 -55 20.5t-31 53.5t-8.5 74t12.5 81q10 40 31 81t48 74t59.5 53.5t66.5 20.5t55 -20.5t31 -53.5t8.5 -74t-12.5 -81t-31.5 -81t-47.5 -74t-59.5 -53.5t-66.5 -20.5zM314 375q-6 56 -32.5 56t-62.5 -56q-20 -32 -35.5 -71t-25.5 -75t-15.5 -75t-1.5 -71
q6 -56 32.5 -56t62.5 56q20 32 36 71t25 75q10 36 15.5 75t1.5 71z" />
    <glyph glyph-name="p" unicode="p" horiz-adv-x="388" 
d="M218 -8q-16 0 -35 8l13 45q11 -16 16.5 -21t13.5 -5q17 0 32.5 16.5t29.5 39.5q19 30 35.5 68.5t27.5 79.5t15.5 79.5t1.5 68.5q-6 57 -32.5 57t-63.5 -57q-21 -33 -36.5 -73.5t-26.5 -78.5l-132 -491h51l-7 -27h-175l7 27h50l162 603q-20 -24 -38 -54t-27 -64h-20
q13 49 40.5 91t55.5 70l51 51q22 22 51 50l-13 -49q39 30 78 30q34 0 55 -21t31 -54.5t8.5 -75t-12.5 -82.5t-31.5 -82t-48 -74t-60.5 -54t-67 -21z" />
    <glyph glyph-name="q" unicode="q" horiz-adv-x="388" 
d="M402 215q9 33 7.5 63t-9.5 54l-161 -602h50l-7 -28h-176l8 28h50l137 508q9 35 13 70t1 65q-7 57 -33 57t-63 -57q-19 -30 -35 -69t-27 -79.5t-15.5 -79.5t-1.5 -69q2 -23 8.5 -39.5t23.5 -16.5h1q6 0 14.5 5t28.5 21l-12 -46q-24 -7 -39 -7q-35 0 -56 21t-30.5 54
t-8 74.5t12.5 82.5q11 40 31.5 81.5t48 75t60 54.5t66.5 21q20 0 35.5 -7.5t27.5 -21.5l13 49l19 -40h-1q7 -15 14 -29.5t15 -31.5q12 -29 18 -70.5t-7 -90.5h-21z" />
    <glyph glyph-name="r" unicode="r" horiz-adv-x="276" 
d="M177 379l52 52q21 21 48 47l-28 -103l48 48q5 5 19.5 17t28 16.5t20.5 -5.5t-3 -48h-20q5 23 3 26t-5 1q-8 -3 -17 -11t-17 -16l-68 -67l-82 -308h49l-7 -28h-173l8 28h50l82 307q-20 -23 -37 -52.5t-26 -62.5h-21q14 48 41.5 90t54.5 69z" />
    <glyph glyph-name="s" unicode="s" horiz-adv-x="276" 
d="M278 364q9 34 2 50.5t-26 16.5q-22 0 -37 -17.5t-21 -40.5q-6 -22 0.5 -40t33.5 -18l-8 -27q-22 0 -35 10t-15 33q-4 43 22 84q17 27 39.5 37.5t40.5 4t26.5 -30t-2.5 -62.5h-20zM138 1q-23 0 -40.5 11.5t-28 31.5t-12.5 47.5t6 60.5q2 7 6 22t8 29q4 17 10 36h20
q-17 -67 35 -67v-1q22 -5 30 -29.5t-3 -65.5h-21q8 29 4 45.5t-18 21.5q-5 -21 -7 -42t0 -38q4 -35 19 -35t37 35q14 20 24 45.5t16 49.5t9.5 49.5t1.5 45.5q-2 13 -7 24.5t-19 9.5l7 28q27 0 46 -12.5t29.5 -33.5t12.5 -49.5t-7 -61.5t-25.5 -61.5t-38 -49.5t-46 -33.5
t-48.5 -12.5z" />
    <glyph glyph-name="t" unicode="t" horiz-adv-x="273" 
d="M257 677q2 2 14 14.5t26 26.5q16 17 36 37l24 24l-84 -313h103l-8 -27h-102l-110 -411h49l-7 -28h-173l8 28h50l110 411h-50l7 27h50l45 167q-20 -24 -37.5 -53.5t-26.5 -63.5h-20q13 49 40.5 91t55.5 70z" />
    <glyph glyph-name="u" unicode="u" horiz-adv-x="442" 
d="M484 432l-55 -205q-1 -1 -1 -2.5t-1 -3.5q-1 -3 -1 -5q-12 -39 -33 -77.5t-48 -69t-58.5 -50t-64.5 -19.5q-35 0 -56 21.5t-29.5 58.5t-5 87.5t18.5 107.5v-1q5 16 9 32.5t8 29.5q-20 -24 -38 -53.5t-27 -62.5h-21q14 49 42 90.5t57 69.5q2 3 18.5 18.5t34.5 33.5l47 47
l-66 -245q-10 -38 -16 -78t-1 -73q7 -56 33 -56t63 56q22 33 37 73t26 78l53 198h-51l7 27h177l-7 -27h-51z" />
    <glyph glyph-name="v" unicode="v" horiz-adv-x="439" 
d="M534 440h-46q-2 -33 -14.5 -70t-32.5 -67l-171 -256q-7 -10 -13.5 -19t-11.5 -17l-12 -18l-38 447h-55l8 27h117h60l-8 -27h-45l27 -315l128 191q18 27 28.5 61t10.5 63h-55l7 27h123z" />
    <glyph glyph-name="w" unicode="w" horiz-adv-x="664" 
d="M758 436h-47q-1 -32 -13.5 -69.5t-32.5 -66.5l-195 -288l-16 -23l-25 287l-160 -237l-34 -50l-40 447h-56l8 28h179l-7 -28h-46l28 -315l125 186l-11 129h-56l7 28h120h60l-7 -28h-46l28 -315l129 192q18 26 29 60t10 63h-55l7 28h125z" />
    <glyph glyph-name="x" unicode="x" horiz-adv-x="383" 
d="M184 0l7 28h45l-17 154q-7 -7 -14 -13.5t-14 -14.5q-10 -10 -19.5 -20.5t-18.5 -21.5q-17 -20 -30 -40.5t-21 -43.5h50l-7 -28h-122l7 28h51q10 28 25 52.5t33.5 46.5t38.5 42l39 39l-24 223h-55l7 27h176l-7 -27h-44l16 -155l29 29q28 28 51 58.5t37 67.5h-50l8 27h122
l-8 -27h-51q-20 -57 -58 -100t-77 -81l24 -222h54l-7 -28h-176z" />
    <glyph glyph-name="y" unicode="y" horiz-adv-x="384" 
d="M426 428l-136 -508h-1q-12 -39 -33 -78.5t-47.5 -70.5t-57.5 -50.5t-64 -19.5q-34 0 -55 21t-31 54.5t-9 74.5t12 82q10 36 28 73t42 69t53.5 55.5t62.5 31.5l10 -23q-23 -14 -42.5 -38.5t-35 -53.5t-26.5 -59.5t-17 -54.5q-10 -36 -15.5 -76t-2.5 -72q7 -57 33 -57
t63 57q20 32 36 72t26 76l22 83l17 62q9 34 3 72.5t-17 63.5l-64 135q-23 -26 -46 -61t-34 -74h-20q12 44 32.5 77t44.5 61q24 29 50 53q12 13 26 26.5t38 37.5l-5 -20l4 -10l-70 -70l64 -136q6 -14 11 -30.5t7 -34.5l70 260h-51l8 28h175l-7 -28h-51z" />
    <glyph glyph-name="z" unicode="z" horiz-adv-x="338" 
d="M115 27h35q18 0 40.5 4.5t46.5 13.5t47.5 23t43.5 34l9 -20l-84 -82h-128h-90h-19l329 430h-34q-37 1 -87 -16.5t-91 -57.5l-10 19l84 83h112h126z" />
    <glyph glyph-name="braceleft" unicode="{" horiz-adv-x="214" 
d="M107 81q-2 17 0 38t7 41l19 73q5 17 9 39.5t4 42.5t-5.5 34.5t-20.5 16.5l8 27q20 0 34 19.5t25 42.5q8 17 14 35t11 35q4 15 7.5 30.5t8.5 29.5q5 16 9.5 30.5t10.5 28.5q12 29 30.5 53t47.5 41q15 9 31.5 14.5t36.5 5.5l-7 -28h-10q-14 -2 -26.5 -20.5t-22.5 -41.5
q-8 -17 -14 -35t-11 -35q-6 -22 -14.5 -54.5t-20.5 -65.5q-10 -29 -24 -55t-34 -43q6 -10 8 -24.5t1 -30.5q-1 -18 -3.5 -36.5t-4.5 -32.5q-1 -2 -1.5 -6t-1.5 -7q-2 -5 -3.5 -11.5t-3.5 -14.5q-5 -15 -9.5 -34t-9.5 -39q-10 -42 -11 -74.5t16 -40.5q1 0 1.5 -0.5t1.5 -0.5
h9l-8 -28q-37 0 -59 19t-25 62z" />
    <glyph glyph-name="bar" unicode="|" horiz-adv-x="51" 
d="M23 0l201 750h6l-201 -750h-6z" />
    <glyph glyph-name="braceright" unicode="}" horiz-adv-x="214" 
d="M259 351q-14 -14 -25 -37t-20 -52q-10 -29 -16.5 -55.5t-11.5 -46.5q-6 -20 -15 -41t-20 -38q-26 -42 -58.5 -61.5t-69.5 -19.5l7 28q10 0 17.5 4.5t12.5 9.5q19 19 32.5 54t21.5 64l25 94q1 1 1 1.5t2 5.5q2 4 3.5 8.5t3.5 9.5q4 10 7 19t5 12q8 17 19.5 37t27.5 34
q-11 16 -11.5 42.5t4.5 54.5q6 33 15.5 66t15.5 55q9 34 12 69q2 23 -0.5 42t-15.5 21h-10l8 28q20 -1 33.5 -6t24.5 -14q20 -17 25 -41t2 -53q-2 -14 -4.5 -28.5t-6.5 -30.5l-8 -30t-9 -30q-9 -35 -12 -70q-1 -12 -1 -23t2.5 -20t8.5 -14.5t16 -5.5l-8 -27q-10 0 -17 -5
t-13 -10z" />
    <glyph glyph-name="asciitilde" unicode="~" horiz-adv-x="274" 
d="M279 338q-20 0 -30.5 9t-18.5 19q-4 5 -7.5 9.5t-8.5 7.5q-10 8 -23 8q-27 0 -61 -29l-10 16q20 17 40 26t37 9q20 0 30 -9t18 -19q4 -5 7.5 -9.5t8.5 -7.5q10 -8 24 -8q12 0 28 7.5t32 21.5l10 -16q-20 -17 -40 -26t-36 -9z" />
    <glyph glyph-name="Euro" unicode="&#x20ac;" horiz-adv-x="490" 
d="M304 0h-2q-47 0 -77.5 24.5t-47.5 66t-21.5 94t2.5 107.5h-57l7 28h54q10 58 32 118h-54l7 28h58q22 54 54.5 106.5t72 93.5t83.5 66.5t90 25.5q50 0 83.5 -32t51.5 -89q-16 -14 -27.5 -29t-29.5 -42q-4 68 -22.5 109t-47.5 51t-67.5 -13t-81.5 -83q-26 -36 -47.5 -78.5
t-37.5 -85.5h155l-7 -28h-158q-11 -29 -18.5 -59t-13.5 -59h158l-8 -28h-155q-6 -41 -7 -87.5t6.5 -85.5t26 -65t51.5 -26q22 0 44.5 13t44.5 35t43 51.5t41 62.5q4 -26 8 -40t13 -27q-49 -57 -98.5 -89.5t-100.5 -33.5z" />
    <glyph glyph-name="quotesinglbase" unicode="&#x201a;" horiz-adv-x="108" 
d="M9 -78l-2 24q30 18 48 46q-14 -2 -21 10.5t-2 34.5q5 19 17.5 32.5t26.5 13.5t19 -13.5t0 -32.5q-10 -35 -33.5 -65.5t-52.5 -49.5z" />
    <glyph glyph-name="quotedblbase" unicode="&#x201e;" horiz-adv-x="220" 
d="M113 -76l-3 23q19 10 31.5 21t22.5 25q-15 -3 -24.5 9.5t-3.5 35.5q5 19 19 32.5t29 13.5t22 -13.5t2 -32.5q-10 -35 -36 -66t-59 -48zM10 -76l-3 23q34 18 54 46q-16 -3 -25.5 9.5t-2.5 35.5q5 19 19 32.5t29 13.5q14 0 21.5 -13.5t1.5 -33.5q-11 -35 -35.5 -65
t-58.5 -48z" />
    <glyph glyph-name="ellipsis" unicode="&#x2026;" horiz-adv-x="332" 
d="M295 83q19 0 25 -13t1.5 -28.5t-17 -28.5t-31.5 -13t-24.5 13t-1.5 28.5t17 28.5t31 13zM189 83q18 0 24 -13t1.5 -28.5t-17 -28.5t-31.5 -13q-18 0 -24 13t-1.5 28.5t17 28.5t31.5 13zM82 83q18 0 24 -13t1.5 -28.5t-17 -28.5t-31.5 -13q-18 0 -24 13t-1.5 28.5t17 28.5
t31.5 13z" />
    <glyph glyph-name="circumflex" unicode="&#x2c6;" horiz-adv-x="217" 
d="M366 669l-62 59l-94 -59l-6 20l108 68l71 -68z" />
    <glyph glyph-name="perthousand" unicode="&#x2030;" horiz-adv-x="501" 
d="M244 585q-27 0 -39 25.5t-3 61.5q10 36 36 61.5t53 25.5q26 0 38.5 -25.5t2.5 -61.5t-35.5 -61.5t-52.5 -25.5zM414 0q-27 0 -39 25.5t-3 61.5q10 36 36 61.5t53 25.5q26 0 38.5 -25.5t2.5 -61.5t-35.5 -61.5t-52.5 -25.5zM39 0l-16 12l480 748l15 -13zM251 0
q-27 0 -39.5 25.5t-2.5 61.5q5 18 14.5 34t21.5 27.5t25.5 18.5t26.5 7q27 0 39.5 -25.5t2.5 -61.5q-5 -18 -14.5 -34t-21.5 -27.5t-25.5 -18.5t-26.5 -7zM265 716q-15 -20 -20.5 -44.5t-3.5 -41.5q5 -34 29 -3q14 20 19.5 45t3.5 42q-2 16 -9 17.5t-19 -15.5zM435 132
q-14 -20 -20 -45t-4 -42q2 -16 9 -17.5t20 15.5q14 20 19.5 44.5t3.5 41.5q-2 16 -8.5 18t-19.5 -15zM272 132q-15 -20 -20.5 -45t-3.5 -42q2 -16 9 -17.5t19 15.5q15 20 20.5 44.5t3.5 41.5q-2 16 -9 18t-19 -15z" />
    <glyph glyph-name="Scaron" unicode="&#x160;" horiz-adv-x="500" 
d="M461 798l-43 91l20 19l34 -70l81 80l-6 -20l5 -9zM101 291l5 19l18 68l3 11h20q-18 -69 37 -69l-1 -1q23 -5 31.5 -30t-2.5 -66h-21q8 30 3.5 46.5t-18.5 20.5q-12 -49 -13.5 -96.5t9.5 -86.5q11 -35 32 -57.5t53 -22.5q33 0 66.5 22.5t62.5 57.5q35 42 59.5 94t38.5 105
q12 46 15.5 95.5t-4.5 90t-30 67t-59 26.5q-17 0 -29.5 10.5t-14.5 33.5t3.5 42.5t19.5 42.5q17 28 40 38.5t41.5 4t27.5 -30.5t-2 -64h-21q10 35 2.5 52t-27.5 17q-22 0 -38 -18t-22 -41q-6 -22 2 -40.5t43 -18.5l-1 -1q43 -4 75 -29.5t49.5 -67t19.5 -95.5t-14 -114
q-17 -65 -49.5 -120t-74 -95.5t-89 -64.5t-94.5 -26t-81.5 21t-55 63t-25 93.5t9.5 113.5z" />
    <glyph glyph-name="guilsinglleft" unicode="&#x2039;" horiz-adv-x="164" 
d="M108 226l58 -134l-2 -8l-15 -15l-69 157l154 157l8 -19z" />
    <glyph glyph-name="OE" unicode="&#x152;" horiz-adv-x="838" 
d="M755 0h-122l7 27q44 0 96.5 17.5t94.5 58.5l6 -12l4 -7zM989 664l-10 -10q-10 21 -26.5 35.5t-36 23.5t-40.5 13t-40 4h-155l-91 -337h160l41 -84l-20 -20q-10 20 -26.5 34.5t-36 23.5t-40.5 13.5t-40 4.5h-45l-73 -273q13 -24 35 -44.5t47 -20.5h63l-8 -27h-62
q-27 0 -48.5 16.5t-36.5 38.5v-3l-38 77q-45 -57 -99.5 -93t-108.5 -36q-39 0 -67.5 18.5t-47.5 50t-27.5 73t-8.5 86.5q0 74 21 151t59 151q24 45 55 86t67 72.5t74.5 50.5t77.5 19q47 0 79 -27t50 -71l18 70h-52l8 28h398l41 -84zM449 730q-18 0 -35.5 -8t-35 -22
t-33.5 -32t-31 -38q-37 -51 -66.5 -117t-47.5 -134.5t-24 -134t4 -116.5q8 -41 27 -71t54 -30q18 0 35.5 8.5t35 22.5t33.5 32t31 38q37 51 66.5 116.5t48 134t24.5 134.5t-4 117q-4 20 -10.5 38t-16.5 32t-23.5 22t-31.5 8z" />
    <glyph glyph-name="Zcaron" unicode="&#x17d;" horiz-adv-x="506" 
d="M467 799l-43 90l20 20l34 -70l71 70l9 -20zM213 656l-9 19l85 85h121l-8 -28q-43 0 -95 -17.5t-94 -58.5zM117 28h198q19 0 42 4t47 13t47.5 23.5t44.5 35.5l6 -13l3 -7l-85 -84h-130h1h-201h-74l576 732h-205l8 28h225h74z" />
    <glyph glyph-name="quoteleft" unicode="&#x2018;" horiz-adv-x="108" 
d="M234 688q14 2 21.5 -11t1.5 -35q-5 -19 -17.5 -32.5t-26.5 -13.5t-17 19.5t9 64.5v-8q13 26 32.5 48.5t43.5 37.5l1 -24q-30 -18 -48 -46z" />
    <glyph glyph-name="quoteright" unicode="&#x2019;" horiz-adv-x="107" 
d="M189 593l-2 24q30 18 48 46q-14 -2 -21 10.5t-2 35.5q5 18 17.5 32t26.5 14q13 0 18.5 -13.5t0.5 -33.5q-11 -35 -33.5 -65.5t-52.5 -49.5z" />
    <glyph glyph-name="quotedblleft" unicode="&#x201c;" horiz-adv-x="220" 
d="M341 689q16 2 25.5 -10.5t3.5 -35.5q-5 -20 -19.5 -33t-28.5 -13q-15 0 -22 13t-2 33q10 36 36 66.5t58 48.5l3 -23q-34 -20 -54 -46zM238 689q16 2 25.5 -10.5t2.5 -35.5q-5 -20 -19 -33t-29 -13q-8 0 -13.5 5.5t-6 19t3 37t13.5 59.5l-3 -35q27 47 77 75l3 -23
q-34 -20 -54 -46z" />
    <glyph glyph-name="quotedblright" unicode="&#x201d;" horiz-adv-x="220" 
d="M370 710l20 10q-12 -44 -37.5 -76t-59.5 -51l-3 24q34 18 54 46q-16 -3 -25.5 9.5t-2.5 35.5q6 23 20 34.5t28 11.5t20.5 -12t2.5 -32q0 -2 -1 -5.5t-4 -17.5zM190 593l-3 24q34 18 54 46q-16 -3 -25.5 9.5t-3.5 35.5q5 20 19.5 33t29.5 13q14 0 21 -13t2 -33
q-10 -35 -36 -66t-58 -49z" />
    <glyph glyph-name="bullet" unicode="&#x2022;" horiz-adv-x="220" 
d="M149 147q-18 0 -31.5 9t-21 25t-8.5 37t5 45t19 45.5t29 37.5t34.5 25t36.5 9q36 0 52.5 -34t3.5 -83q-6 -24 -18.5 -45t-29 -37t-35 -25t-36.5 -9z" />
    <glyph glyph-name="endash" unicode="&#x2013;" horiz-adv-x="214" 
d="M82 222l2 8h169l-2 -8h-169z" />
    <glyph glyph-name="emdash" unicode="&#x2014;" horiz-adv-x="382" 
d="M82 221l2 8h337l-2 -8h-337z" />
    <glyph glyph-name="tilde" unicode="&#x2dc;" horiz-adv-x="218" 
d="M333 696q-16 0 -24 6t-14 14q-5 6 -11 11q-7 5 -16 5q-8 0 -22.5 -7.5t-46.5 -33.5l19 30q-1 1 -1.5 2t-1.5 2l-2 2q33 27 61 27q15 0 23 -6t14 -13q3 -3 5.5 -6.5t6.5 -5.5q8 -4 16 -4t19.5 4.5t23.5 15.5l11 -16q-17 -14 -32.5 -20.5t-27.5 -6.5z" />
    <glyph glyph-name="trademark" unicode="&#x2122;" horiz-adv-x="283" 
d="M374 595l7 26h8l14 53q-1 -1 -3 -5l-40 -68l-16 -28l-5 101l-14 -53h7l-7 -26h-35l7 26h7l29 107h-8l7 27h29h7l4 -95q5 8 11 17.5t12 20.5q10 16 21 31.5t19 20.5q7 5 14 5h14l-7 -27h-8l-28 -107h7l-7 -26h-46zM316 712q-5 10 -12 13t-14 3l-29 -107h8l-7 -26h-46l7 26
h7l21 77l8 30h-5q-6 -1 -13 -4t-16 -12l-10 19l25 24h26h18h6h22h11l12 -24zM391 675v1v-1l-2 -2l2 2l1 1v-1v1v-1h-1q1 0 1 1v-1h-1l1 1l-1 -1h-1l-2 -1l6 4l-3 -3h-1l1 1v-1l1 2v-1h-1v1v1v-1h1h-1v1l1 -1v-1l-1 -1h-1v1l1 3v-3l1 1q-1 -1 -2 -1z" />
    <glyph glyph-name="scaron" unicode="&#x161;" horiz-adv-x="276" 
d="M273 504l-41 90l20 20l32 -70l79 79l-5 -20l4 -9zM139 2q-23 0 -40.5 11.5t-28 32t-12.5 49t7 61.5q2 7 5 20.5t7 27.5q4 16 9 34l6 5h16q-12 -47 5 -61q5 -5 16 -7h3h10v-1q23 -5 30.5 -30t-3.5 -65h-20q8 29 3.5 45.5t-17.5 21.5q-5 -21 -7.5 -42.5t-0.5 -38.5
q4 -35 19 -35t38 35q13 20 23 46t17 50q4 16 8 39t4 43t-4.5 34.5t-15.5 14.5q-27 0 -38.5 24.5t-0.5 62.5q11 43 37 64.5t49 21.5q12 0 21.5 -5.5t15.5 -17.5t6.5 -30t-6.5 -43h-21q10 35 2.5 52t-26.5 17q-21 0 -36.5 -18t-21.5 -41q-3 -11 -3 -21.5t4.5 -19t14.5 -13.5
t27 -5l-2 -2q21 -4 35.5 -17.5t22.5 -34.5t8.5 -48t-7.5 -57q-9 -33 -26 -62t-38 -50.5t-45.5 -34t-48.5 -12.5z" />
    <glyph glyph-name="guilsinglright" unicode="&#x203a;" horiz-adv-x="164" 
d="M25 41l22 38q-1 1 -3 5q-1 2 -1 3l134 138l-60 138l19 20l69 -158z" />
    <glyph glyph-name="oe" unicode="&#x153;" horiz-adv-x="558" 
d="M472 212q-31 -4 -59 -13.5t-48 -28.5q-3 -23 -4.5 -45.5t1.5 -41.5q8 -60 38 -55t69 71h68q-38 -46 -75 -70t-69.5 -26.5t-57 16t-36.5 57.5q-29 -34 -62.5 -55t-67.5 -21q-35 0 -56.5 20.5t-31.5 53.5t-9 74t12 81t31.5 81t48.5 74t60.5 53.5t67.5 20.5q34 0 56 -21
t33 -55q29 34 62.5 55t67.5 21q36 0 57.5 -21.5t31 -56t7.5 -78t-14 -87.5q-27 0 -58 1t-63 -4zM537 375q-7 56 -34 56t-63 -56q-24 -37 -41.5 -83t-27.5 -90q36 26 78.5 33t74.5 8q8 33 12.5 68t0.5 64zM221 375q-19 -29 -35 -67.5t-26.5 -78.5t-15 -78.5t-1.5 -67.5
q3 -22 10.5 -39t24.5 -17q15 0 31.5 18t30.5 38q19 29 35.5 67.5t27 78.5t15 78.5t1.5 67.5q-7 56 -34 56t-64 -56z" />
    <glyph glyph-name="zcaron" unicode="&#x17e;" horiz-adv-x="338" 
d="M305 506l-70 83l17 23l61 -73l99 72q3 -5 3.5 -7t0.5 -4q1 -1 1 -2.5t2 -8.5zM115 28h42l-7 -27h-115h-19l331 435h-34q-38 0 -88 -17t-91 -58l-9 19l84 84h127v-1q11 0 27 0.5t30 0.5h34h19zM254 1h-119l8 27q42 0 93 17.5t92 58.5l10 -20z" />
    <glyph glyph-name="Ydieresis" unicode="&#x178;" horiz-adv-x="550" 
d="M572 905q18 0 23 -16t0 -34.5t-18.5 -34.5t-31.5 -16q-19 0 -24 16t0 34.5t18.5 34.5t32.5 16zM463 905q18 0 23 -16t0 -34.5t-18.5 -34.5t-31.5 -16q-19 0 -24 16t0 34.5t18.5 34.5t32.5 16zM667 731l-254 -356l-93 -348h51l-7 -27h-178l7 27h52l93 348l-64 356h-56
l8 28h178l-8 -28h-43l58 -325l232 325h-44l8 28h123l-7 -28h-56z" />
    <glyph glyph-name="exclamdown" unicode="&#xa1;" horiz-adv-x="164" 
d="M262 765q17 0 21 -15.5t-1 -34.5t-17.5 -34.5t-29.5 -15.5t-21 15.5t1 34.5t17.5 34.5t29.5 15.5zM80 50l2 3q-10 -11 -20 -21t-20 -21l-23 -24l169 632h70l-131 -486q19 24 36 53.5t26 63.5h19q-14 -51 -45.5 -98t-82.5 -102z" />
    <glyph glyph-name="cent" unicode="&#xa2;" 
d="M376 382q3 -12 7 -32q-19 -13 -34.5 -24.5t-36.5 -29.5l1 15l-173 -195q0 -15 1.5 -31t5 -29t10.5 -21t17 -7q20 2 39 25t36 53q39 14 64.5 46.5t40.5 86.5h20q-12 -44 -33 -86.5t-48.5 -76.5t-60 -55t-66.5 -21q-27 0 -47 15t-32 41l-52 -57l-11 16l55 63
q-9 32 -7.5 71.5t12.5 80.5q11 40 31.5 80.5t47.5 73.5t59.5 54t66.5 21q28 0 48 -15t31 -41l52 58l11 -17zM283 431q-8 1 -16 -4t-16.5 -13t-16.5 -18t-15 -20q-15 -24 -28 -52.5t-22.5 -58.5t-16.5 -60t-10 -57l173 195q0 15 -1 30.5t-4.5 28t-10 20.5t-16.5 9z" />
    <glyph glyph-name="sterling" unicode="&#xa3;" horiz-adv-x="328" 
d="M248 0h-125v1q-12 -1 -29 -1h-33h-38l7 28h50l91 338h-51l8 28h50l39 145h1q12 39 33 78.5t47.5 71t57.5 51t64 19.5q20 0 35.5 -8.5t32.5 -28.5l-43 -43q-11 56 -37.5 50t-57.5 -55q-21 -32 -36.5 -72t-26.5 -78l-35 -130h104l-7 -28h-104l-37 -137l-54 -200
q38 2 83.5 19t84.5 56l10 -20z" />
    <glyph glyph-name="dieresis" unicode="&#xa8;" horiz-adv-x="220" 
d="M364 754q18 0 23.5 -13t1 -28.5t-17 -28.5t-30.5 -13t-23.5 13t-1 28.5t17 28.5t30.5 13zM261 754q18 0 23 -13t1 -28.5t-16.5 -28.5t-30.5 -13t-23.5 13t-1 28.5t17 28.5t30.5 13z" />
    <glyph glyph-name="copyright" unicode="&#xa9;" horiz-adv-x="389" 
d="M194 0q-36 0 -62 18t-41 49t-17.5 72.5t10.5 89.5q13 47 37.5 89t56 73t67.5 49t72 18t62 -18t41 -49t17.5 -73t-9.5 -89q-13 -48 -37.5 -89.5t-56.5 -72.5t-68 -49t-72 -18zM310 430q-32 0 -63.5 -16t-59.5 -43t-50 -63.5t-33 -78.5t-9 -78.5t15.5 -64t36.5 -43.5
t55 -16q31 0 63 16t59.5 43.5t49.5 64t33 78.5t9 78.5t-15 63.5t-36.5 43t-54.5 16zM344 220q-16 -48 -50 -80.5t-71 -32.5q-19 0 -33 9.5t-21.5 26t-9 39t5.5 47.5q12 46 39 76t56.5 39t55 -4.5t36.5 -53.5q-15 -8 -25.5 -15t-26.5 -19q2 26 0 41t-6.5 21.5t-10 7.5
t-10.5 -2q-14 -6 -29.5 -30t-25.5 -61q-5 -18 -7 -36.5t1 -32.5q5 -28 21.5 -24.5t37.5 37.5q20 6 33 18t23 41l20 -2z" />
    <glyph glyph-name="guillemotleft" unicode="&#xab;" horiz-adv-x="277" 
d="M214 226l67 -138l-20 -19l-76 157l160 157l10 -19zM109 226l66 -138l-19 -19l-76 157l160 157l9 -19z" />
    <glyph glyph-name="registered" unicode="&#xae;" horiz-adv-x="389" 
d="M194 0q-36 0 -62 18t-41 49t-17.5 72.5t10.5 89.5q13 47 37.5 89t56 73t67.5 49t72 18t62 -18t41 -49t17.5 -73t-9.5 -89q-13 -48 -37.5 -89.5t-56.5 -72.5t-68 -49t-72 -18zM310 430q-32 0 -63.5 -16t-59.5 -43t-50 -63.5t-33 -78.5t-9 -78.5t15.5 -64t36.5 -43.5
t55 -16q31 0 63 16t59.5 43.5t49.5 64t33 78.5t9 78.5t-15 63.5t-36.5 43t-54.5 16zM249 102l7 28h13q5 23 -0.5 43t-22.5 20q-12 0 -16.5 11.5t1.5 34.5h2h1h1h17q-3 -12 -2 -15t6 -4q10 3 20 17.5t15 37.5q7 24 4.5 39t-12.5 15h-24l-24 -90v-1v-1h-1l-11 -41l-17 -66h14
l-8 -28h-65l7 28h14l53 199h-14l8 27h75q24 0 34.5 -18t8.5 -43t-15.5 -50t-35.5 -40q10 -14 11.5 -34t-3.5 -41h15l-8 -28h-48z" />
    <glyph glyph-name="degree" unicode="&#xb0;" horiz-adv-x="164" 
d="M242 596q-25 0 -36 23.5t-3 55.5q9 33 32.5 56.5t48.5 23.5t36 -23.5t2 -56.5q-4 -16 -12.5 -30.5t-19.5 -25t-23.5 -17t-24.5 -6.5zM261 715q-14 -18 -18.5 -40t-2.5 -37q2 -14 8 -16t17 13q13 19 18 41t3 37q-2 14 -8 15.5t-17 -13.5z" />
    <glyph glyph-name="ordmasculine" unicode="&#xba;" horiz-adv-x="164" 
d="M242 596q-25 0 -36 23.5t-3 55.5q9 33 32.5 56t48.5 23t36 -23t2 -56q-4 -16 -12.5 -30.5t-19.5 -25t-23.5 -17t-24.5 -6.5zM261 715q-14 -18 -18.5 -40t-2.5 -37q2 -14 8 -16t17 13q13 18 18 40.5t3 37.5q-5 31 -25 2z" />
    <glyph glyph-name="guillemotright" unicode="&#xbb;" horiz-adv-x="277" 
d="M158 68l-10 19l141 138l-67 138l20 19l76 -157zM52 68l-9 19l140 138l-66 138l19 19l76 -157z" />
    <glyph glyph-name="questiondown" unicode="&#xbf;" 
d="M370 759q18 0 23 -16t-0.5 -34.5t-18.5 -34.5t-31 -16t-23 16t0 34.5t18.5 34.5t31.5 16zM166 0q-25 0 -43.5 12.5t-30 33.5t-16.5 48.5t-4 57.5q1 20 4.5 40.5t8.5 40.5q11 43 30.5 80.5t45.5 72.5t50.5 61.5t55.5 52.5q28 23 57 54t39 68q7 23 -3 47l20 20
q8 -17 7.5 -35t-4.5 -32q-6 -24 -18.5 -45t-28 -39t-32 -33t-30.5 -27q-12 -9 -23 -20q21 9 40 9q34 0 55.5 -21t31 -55t8 -75.5t-12.5 -82.5t-31.5 -82t-48 -75t-60.5 -55t-67 -21zM316 382q-2 23 -9 40t-24 17q-15 0 -31.5 -18t-30.5 -39q-20 -32 -36 -72t-26 -77
q-10 -36 -15.5 -76t-1.5 -72q6 -57 32 -57t62 57q19 30 35.5 68.5t27.5 79.5t15.5 80t1.5 69z" />
    <glyph glyph-name="Agrave" unicode="&#xc0;" horiz-adv-x="606" 
d="M516 803l-42 87l20 20l42 -87zM405 1l8 28h46l-8 264h-193l-150 -264h46l-7 -28h-124l7 28h55l382 674q6 11 13 22.5t12 20.5q6 11 12 21h10l22 -738h55l-7 -28h-179zM441 617l-168 -296h177z" />
    <glyph glyph-name="Aacute" unicode="&#xc1;" horiz-adv-x="606" 
d="M520 802l-9 20l88 87l10 -20zM405 0l7 28h47l-8 264h-194l-150 -264h47l-8 -28h-124l8 28h55l379 669q6 11 13 23t13 23q7 11 13 23h10l23 -738h55l-7 -28h-179zM441 616l-168 -296h177z" />
    <glyph glyph-name="Acircumflex" unicode="&#xc2;" horiz-adv-x="605" 
d="M569 801l-33 70l-71 -70l-10 19l91 90l43 -90zM404 1l8 27h46l-8 265h-193l-150 -265h47l-8 -27h-123l7 27h55l381 674v-1q6 11 12.5 22.5t11.5 20.5q6 11 12 21h10l23 -737h55l-8 -27h-178zM440 616l-167 -296h176z" />
    <glyph glyph-name="Atilde" unicode="&#xc3;" horiz-adv-x="606" 
d="M555 845q-11 0 -17 6.5t-10 12.5q-3 5 -6.5 9.5t-9.5 4.5q-5 0 -13 -4t-19 -15l-9 19q14 14 26 20.5t22 7.5q11 0 17 -6t10 -13q3 -5 6.5 -9.5t10.5 -4.5q12 0 31 19l10 -19q-28 -28 -49 -28zM405 0l7 28h47l-8 265h-194l-150 -265h47l-7 -28h-124l7 28h55l379 670
q6 11 13 23t13 22q7 11 13 23h10l23 -738h55l-8 -28h-178zM441 617l-168 -296h177z" />
    <glyph glyph-name="Adieresis" unicode="&#xc4;" horiz-adv-x="606" 
d="M600 905q18 0 23 -16t0 -34.5t-18.5 -34.5t-31.5 -16q-19 0 -24 16t0 34.5t18.5 34.5t32.5 16zM491 905q18 0 23 -16t0 -34.5t-18.5 -34.5t-31.5 -16q-19 0 -24 16t0 34.5t18.5 34.5t32.5 16zM404 0l8 28h46l-8 264h-193l-150 -264h47l-8 -28h-124l8 28h55l381 672
q6 11 12.5 22.5t11.5 21.5q6 11 13 22h10l22 -738h55l-7 -28h-179zM440 616l-167 -296h177z" />
    <glyph glyph-name="Aring" unicode="&#xc5;" horiz-adv-x="606" 
d="M546 906q18 0 23 -16t0 -34.5t-18.5 -34.5t-31.5 -16q-19 0 -24 16t0 34.5t18.5 34.5t32.5 16zM405 1l7 28h47l-8 265h-194l-149 -265h46l-7 -28h-124l7 28h55l379 669q6 11 13 23t13 23q7 11 13 23h10l23 -738h55l-8 -28h-178zM534 874q-5 -8 -8 -17.5t-2 -17.5
q1 -6 2 -6t4 4q5 8 8 18t2 18q-1 6 -2 6t-4 -5zM441 617l-168 -296h177z" />
    <glyph glyph-name="AE" unicode="&#xc6;" horiz-adv-x="835" 
d="M976 655q-10 20 -26.5 34.5t-37 23.5t-43 13.5t-44.5 4.5l8 28h122l41 -84zM752 0h-132h-29q-11 0 -21 1t-19 3q-17 5 -32 14t-29 28q-2 2 -4 6q-2 2 -3 4q-9 13 -15.5 28t-11.5 31q-2 8 -5 20.5t-3 21.5v1l-2 134h-187l-151 -264h47l-7 -28h-125l7 28h56l374 656
q7 13 16 28.5t17 29.5l18 32l5 -13l11 -309l75 279h-52l7 28h77l-1 -1q7 0 15 0.5t15 0.5h15h170l-8 -28h-162l-91 -338h160l41 -84l-20 -20q-10 20 -26.5 34.5t-36 23.5t-40 13.5t-39.5 4.5h-46l-77 -288q13 -20 27 -30t30 -15q16 -4 38 -4q11 0 23.5 -0.5t34.5 0.5
q38 1 86 19.5t86 56.5l10 -20zM441 612l-166 -292h171z" />
    <glyph glyph-name="Ccedilla" unicode="&#xc7;" horiz-adv-x="501" 
d="M295 4q15 -23 4 -65q-12 -44 -38.5 -65.5t-50.5 -21.5q-12 0 -22 5.5t-16 17.5t-6.5 30t6.5 44h21q-5 -19 -5 -32t4 -21.5t11 -12t15 -3.5q17 0 34.5 15t25.5 44q5 17 3.5 31t-10.5 20q-11 8 -21 8q-39 0 -67 18.5t-46 50t-26.5 73t-8.5 86.5q0 37 5.5 75.5t16.5 76.5
q21 77 59 152q24 45 55 86.5t66 73t73 50.5t77 19q63 0 98.5 -49.5t46.5 -127.5q-10 -4 -18 -8t-15.5 -9t-16 -12.5t-18.5 -17.5q1 36 -2.5 71.5t-13.5 63t-26.5 44.5t-41.5 17q-35 0 -70 -29.5t-64 -71.5q-39 -54 -68 -121t-46 -131t-24 -131t3 -121q4 -20 10 -38.5
t16 -32.5t23 -22t30 -8q31 0 61 22.5t56.5 56t49 73t37.5 74.5q34 13 60.5 51t40.5 85h20q-16 -61 -44.5 -123t-66 -115t-82.5 -92t-94 -53z" />
    <glyph glyph-name="Egrave" unicode="&#xc8;" horiz-adv-x="499" 
d="M640 655q-9 21 -25.5 35.5t-36 23.5t-42 13t-43.5 4l7 28h120l40 -84zM521 802l-100 82l16 25l100 -82zM434 290q-10 20 -26 34.5t-35 23.5t-39.5 13.5t-38.5 4.5h-45l-73 -273q13 -24 34 -44.5t46 -20.5h62l-7 -28h-62q-27 0 -48 17t-35 40l-1 -3l-48 100q-12 29 -18 71
t7 91h21q-9 -34 -7.5 -63.5t9.5 -54.5l53 200h1q7 27 20 75.5t26.5 100t25.5 95.5t17 62h-52l8 28h75h44h167l-7 -28h-160l-76 -283v1q-4 -13 -8 -29t-7 -26h157l40 -85zM417 0h-120l7 28q44 0 95.5 17.5t93.5 58.5l9 -20z" />
    <glyph glyph-name="Eacute" unicode="&#xc9;" horiz-adv-x="499" 
d="M408 801l-2 25l143 82l3 -25zM640 655q-20 41 -63 58.5t-94 17.5h-135l-76 -283h-1q-3 -12 -7 -28.5t-7 -26.5h157l40 -84l-20 -20q-10 20 -26 34.5t-35 23.5t-39.5 13.5t-38.5 4.5h-45l-73 -273q13 -24 34 -44.5t46 -20.5h62l-8 -27h-61q-27 0 -48 17t-36 39v-3
q-16 33 -26.5 55.5t-21.5 45.5q-12 29 -18 70.5t7 91.5h21q-9 -34 -7.5 -64t9.5 -54l49 183l94 350h-52l8 28h75v-1q7 0 14.5 0.5t14.5 0.5h15h176v-1q11 0 28 0.5t32 0.5h36l40 -85zM417 0h-120l7 27q43 0 94.5 17.5t93.5 58.5l10 -19z" />
    <glyph glyph-name="Ecircumflex" unicode="&#xca;" horiz-adv-x="498" 
d="M516 800l-33 70l-71 -70l-9 20l90 90l43 -90zM639 654q-9 21 -25.5 35.5t-37.5 23.5t-45 13t-49 4l1 1q-13 0 -32.5 -0.5t-39.5 -0.5h-37.5h-26.5l-90 -337h156l40 -84l-20 -20q-9 20 -25 34.5t-35 23.5t-39.5 13.5t-38.5 4.5h-46l-73 -272q14 -24 35 -44.5t46 -20.5
q3 0 11 -0.5t16 -0.5q9 0 19 0.5t27 5.5l-4 -5q37 3 82.5 20.5t83.5 55.5l9 -20l-85 -84h-114h-25h-27q-29 0 -53 22t-44 57h1q-5 9 -11.5 22t-11.5 25q-7 14 -13 29q-12 29 -18 70.5t7 90.5h21q-9 -34 -7.5 -64t9.5 -54l49 183l93 349h-51l8 28h75h44h175h96l40 -84z" />
    <glyph glyph-name="Edieresis" unicode="&#xcb;" horiz-adv-x="499" 
d="M547 906q18 0 23 -16t0 -34.5t-18.5 -34.5t-31.5 -16q-19 0 -24 16t0 34.5t18.5 34.5t32.5 16zM438 906q19 0 24 -16t0 -34.5t-18.5 -34.5t-32.5 -16q-18 0 -23 16t0 34.5t18.5 34.5t31.5 16zM640 656q-19 41 -62.5 58.5t-94.5 17.5h1h-136l-91 -338h157l40 -84l-20 -20
q-9 20 -25 34.5t-35.5 23.5t-40 13.5t-38.5 4.5h-45l-73 -272q13 -24 34 -44.5t46 -20.5h62l-7 -28h-62q-26 0 -47.5 17t-35.5 39l-1 -3q-16 33 -26.5 55.5t-21.5 45.5v1q-12 29 -18 70.5t7 90.5h21q-9 -34 -7 -64t9 -54l143 533h-51l7 28h75h44h176v-1q12 0 28.5 0.5
t31.5 0.5h36l40 -84zM417 1h-120l7 28q44 0 95.5 17t93.5 59l9 -20z" />
    <glyph glyph-name="Igrave" unicode="&#xcc;" horiz-adv-x="213" 
d="M345 801l-38 88l19 19l38 -87zM22 0l8 27h48l37 137l152 567h-49l8 28h168l-7 -28h-49l-188 -704h48l-7 -27h-169z" />
    <glyph glyph-name="Iacute" unicode="&#xcd;" horiz-adv-x="213" 
d="M298 803l-9 20l85 87l9 -20zM339 733l-189 -704h49l-8 -28h-168l7 28h49l188 704h-48l7 28h169l-8 -28h-48z" />
    <glyph glyph-name="Icircumflex" unicode="&#xce;" horiz-adv-x="217" 
d="M400 801l-57 74l-118 -90l18 29q-1 1 -1 2.5t-1 3.5t-1 4l112 84l66 -84zM24 1l8 28h48l57 212q10 36 22.5 82.5t25.5 96.5t26.5 99.5t24.5 92t19.5 74t12.5 45.5h-48l7 28h169l-8 -28h-48l-188 -702h48l-7 -28h-169z" />
    <glyph glyph-name="Idieresis" unicode="&#xcf;" horiz-adv-x="219" 
d="M404 905q18 0 22.5 -16t-1 -34.5t-18.5 -34.5t-30 -16q-18 0 -22.5 16t0.5 34.5t18 34.5t31 16zM301 905q18 0 22.5 -16t-0.5 -34.5t-18 -34.5t-31 -16t-22.5 16t0.5 34.5t18 34.5t31 16zM341 731l-158 -590q-3 -12 -7.5 -28.5t-8.5 -32.5t-8 -30t-6 -22h48l-7 -28h-169
l8 28h48l48 178q8 31 21 78t27 100.5t29 108.5t28 103t22.5 84t13.5 51h-49l8 28h168l-7 -28h-49z" />
    <glyph glyph-name="Ntilde" unicode="&#xd1;" horiz-adv-x="662" 
d="M592 828q-17 0 -25 9t-13 18q-2 4 -5 8t-6 7q-7 7 -17 7q-8 0 -24 -10t-50 -44l21 38q-1 1 -1 2t-1 3t-2 3q17 18 34 27t31 9q17 0 24.5 -9t13.5 -18q2 -5 5 -8.5t6 -7.5q6 -6 17 -6q18 0 47 27l10 -19q-36 -36 -65 -36zM783 731l-188 -704h51l-7 -27h-179l7 27h106
q5 34 -1 66.5t-17 56.5l-234 488l-164 -611h52l-8 -27h-179l8 27h51l202 751l47 -98l234 -487l144 538h-52l7 27h179l-7 -27h-52z" />
    <glyph glyph-name="Ograve" unicode="&#xd2;" horiz-adv-x="500" 
d="M521 803l-100 82l16 24l100 -82zM522 234q-24 -46 -54.5 -88t-66 -74.5t-74 -51.5t-77.5 -19t-67 19t-46 51.5t-26.5 74.5t-7.5 88q2 72 21 147q11 39 26.5 78.5t35.5 76.5q24 45 54.5 85.5t65.5 71t72.5 49t75.5 18.5t65.5 -18.5t45.5 -49t27 -71t9 -85.5
q0 -37 -5.5 -76.5t-16.5 -78.5q-10 -38 -24 -75t-33 -72zM446 732q-35 0 -69.5 -30t-63.5 -70q-37 -51 -66 -117t-47.5 -134.5t-24.5 -134.5t3 -117q8 -40 26.5 -70t53.5 -30t69.5 30t63.5 70q37 51 66 117t47.5 134.5t24.5 134.5t-4 117q-7 40 -26 70t-53 30z" />
    <glyph glyph-name="Oacute" unicode="&#xd3;" horiz-adv-x="500" 
d="M409 802l-3 25l144 82l2 -25zM518 225q-24 -45 -54.5 -85.5t-65.5 -71t-72.5 -49t-75.5 -18.5q-39 0 -67 19t-46 51.5t-26.5 74.5t-7.5 88q0 35 5.5 72t15.5 74q11 38 25 75t32 72q24 46 55 88t66.5 74t74 51.5t77.5 19.5q38 0 65.5 -18.5t45.5 -49.5t27 -71.5t9 -84.5
q0 -38 -5.5 -77t-16.5 -79q-21 -80 -61 -155zM446 732q-35 0 -69.5 -30t-63.5 -70q-37 -51 -66 -117t-47.5 -134.5t-24.5 -134.5t3 -117q8 -41 26.5 -70.5t53.5 -29.5t69.5 30t63.5 70q37 51 66 117t47 134.5t24 134.5t-3 117q-7 40 -26 70t-53 30z" />
    <glyph glyph-name="Ocircumflex" unicode="&#xd4;" horiz-adv-x="499" 
d="M516 801l-33 70l-71 -70l-9 19l90 90l43 -90zM517 224q-24 -44 -54.5 -84.5t-65.5 -71.5t-72.5 -49t-74.5 -18q-39 0 -67.5 19t-46.5 51t-26 74t-7 88q0 35 5.5 72t15.5 75q11 37 25 74t32 72q24 46 54.5 88t66 74t74 51.5t77.5 19.5q38 0 65.5 -18.5t45.5 -49.5
t27 -71.5t9 -84.5q0 -38 -5.5 -77t-16.5 -78q-21 -79 -61 -156zM445 731q-35 0 -69.5 -30t-63.5 -71q-36 -51 -65 -116.5t-47.5 -134t-24.5 -134t3 -116.5q4 -20 10 -38.5t16 -32.5t23 -22t30 -8t34.5 8.5t35 22.5t33.5 32t30 38q37 51 66 116.5t47.5 134t24.5 134t-4 116.5
q-3 20 -9.5 38.5t-16 32.5t-23 22t-30.5 8z" />
    <glyph glyph-name="Otilde" unicode="&#xd5;" horiz-adv-x="500" 
d="M503 845q-12 0 -18 6.5t-9 12.5q-4 5 -7 9.5t-10 4.5q-5 0 -12.5 -4t-18.5 -15l-9 19q27 28 47 28q12 0 17.5 -6t9.5 -13q4 -5 7 -9.5t10 -4.5q5 0 12.5 4.5t18.5 15.5l9 -20q-27 -28 -47 -28zM517 224q-24 -44 -54.5 -84.5t-65 -71.5t-72 -49t-75.5 -18q-39 0 -67 19
t-46 51.5t-26.5 74.5t-7.5 87q0 36 5.5 72.5t15.5 74.5q11 38 25 75t32 72q24 46 55 88t66 74t73.5 51.5t77.5 19.5q38 0 66 -18.5t46 -49.5t27 -71.5t9 -84.5q0 -38 -5.5 -77t-16.5 -79q-21 -81 -62 -156zM446 732q-35 0 -69.5 -30t-63.5 -71q-37 -51 -66 -116.5
t-47.5 -134t-24.5 -134.5t3 -117q8 -41 26.5 -71t53.5 -30t69.5 30.5t63.5 70.5q36 51 65 117t47.5 134.5t24.5 134t-3 116.5q-4 20 -10 38.5t-16 32.5t-23 22t-30 8z" />
    <glyph glyph-name="Odieresis" unicode="&#xd6;" horiz-adv-x="500" 
d="M547 906q18 0 23 -16t0 -34.5t-18.5 -34.5t-31.5 -16t-23 16t0 34.5t18.5 34.5t31.5 16zM438 906q19 0 24 -16t0 -34.5t-18.5 -34.5t-32.5 -16q-18 0 -23 16t0 34.5t18.5 34.5t31.5 16zM517 225q-24 -44 -54.5 -84.5t-65 -71.5t-72 -49.5t-75.5 -18.5q-39 0 -67 19
t-46 51.5t-26.5 74.5t-7.5 88q2 73 21 146q11 38 25 75t32 72q24 46 55 88t66 74t73.5 51.5t77.5 19.5q38 0 66 -18.5t46 -49.5t27 -71.5t9 -84.5q0 -38 -5.5 -77t-16.5 -79q-22 -80 -62 -155zM446 732q-35 0 -69.5 -30t-63.5 -70q-37 -51 -66 -117t-47.5 -134.5
t-24.5 -134.5t3 -117q8 -40 26.5 -70t53.5 -30t69.5 30t63.5 70q36 51 65 117t47.5 134.5t24.5 134.5t-3 117q-8 40 -26.5 70t-52.5 30z" />
    <glyph glyph-name="Oslash" unicode="&#xd8;" horiz-adv-x="501" 
d="M588 637q17 -56 14 -122.5t-22 -135.5q-11 -39 -25.5 -77.5t-34.5 -75.5q-24 -45 -54.5 -85.5t-65.5 -72t-73 -50t-76 -18.5q-46 0 -78 27t-50 72l-87 -101l-12 17l92 106q-17 56 -13.5 122.5t21.5 135.5q21 79 60 152q24 45 54.5 86t66 72.5t73.5 50t76 18.5
q46 0 78 -27t49 -72l88 101l11 -17zM446 730q-35 0 -69.5 -30t-63.5 -70q-33 -46 -59.5 -102t-44.5 -115t-27.5 -117.5t-8.5 -108.5l357 413q-2 24 -8 47.5t-16 42t-24.5 29.5t-35.5 11zM174 158q2 -25 8 -48.5t16 -42t25 -29.5t35 -11q35 0 69.5 30t63.5 71q33 45 59.5 101
t44.5 115.5t27.5 118t8.5 108.5z" />
    <glyph glyph-name="Ugrave" unicode="&#xd9;" horiz-adv-x="609" 
d="M577 802l-100 82l16 25l100 -82zM258 677v1l103 101l-111 -416q-17 -61 -21.5 -122t4.5 -112q9 -50 30.5 -75t50 -25t63 25t70.5 75q41 56 69.5 123t45.5 133l93 347h-51l7 28h179l-8 -28h-51l-95 -355q-1 -1 -1 -2.5t-1 -3.5t-1 -4q-18 -63 -51.5 -128.5t-76.5 -118.5
t-94 -86.5t-105 -33.5t-87 33.5t-48 86t-13 118t17 128.5l5 18l67 251q-20 -24 -38.5 -55t-26.5 -64h-21q6 24 17 47t24.5 44t28 38.5t27.5 31.5z" />
    <glyph glyph-name="Uacute" unicode="&#xda;" horiz-adv-x="609" 
d="M464 801l-3 25l145 82l2 -25zM258 677q21 20 40 39.5t38 36.5q2 2 6 6.5t19 19.5l-112 -417q-16 -62 -20.5 -122.5t4.5 -111.5q9 -50 30 -75t50 -25t63.5 25t70.5 75q41 56 69.5 123t45.5 133l93 347h-51l7 28h179l-8 -28h-51l-95 -355q-1 -1 -1 -2.5t-1 -3.5t-1 -4v-1
q-19 -63 -52 -128t-76 -117.5t-94 -86t-105 -33.5t-87 33.5t-48 86t-13 117.5t17 128l5 19l67 250q-20 -24 -38.5 -55t-26.5 -64h-21q6 24 17 47t24.5 44t28 39t27.5 32z" />
    <glyph glyph-name="Ucircumflex" unicode="&#xdb;" horiz-adv-x="608" 
d="M572 800l-33 70l-71 -70l-10 20l91 90l43 -90zM259 677l102 101l-112 -416q-16 -61 -21 -122t5 -112q9 -50 30 -75t50 -25t63.5 25t70.5 75q40 56 68.5 123t45.5 133l93 346h-51l7 28h179l-8 -28h-51l-95 -354q-1 -1 -1 -2.5t-1 -3.5q-1 -3 -1 -5h-1q-18 -63 -51 -128
t-76 -117.5t-93.5 -86t-104.5 -33.5t-87 33.5t-48 86t-13 117.5t17 128l5 19l67 250q-20 -24 -38.5 -55t-27.5 -64h-20q6 24 17 47t24.5 44t28 39t28.5 32z" />
    <glyph glyph-name="Udieresis" unicode="&#xdc;" horiz-adv-x="609" 
d="M603 905q19 0 24 -16t0 -34.5t-18.5 -34.5t-32.5 -16t-24 16t0 34.5t18.5 34.5t32.5 16zM494 905q18 0 23 -16t0 -34.5t-18.5 -34.5t-31.5 -16q-19 0 -24 16t0 34.5t18.5 34.5t32.5 16zM258 676v1l103 101l-112 -416q-16 -61 -20.5 -122t4.5 -112q9 -50 30 -75t50 -25
t63.5 25t70.5 75q40 55 69 122t46 133l93 347h-52l8 28h178l-7 -28h-52l-95 -354q0 -1 -0.5 -2.5t-0.5 -3.5q-1 -3 -1 -5h-1q-18 -63 -51 -128t-76 -117.5t-94 -86t-105 -33.5t-87 33.5t-48 86t-13 118t17 128.5l72 268q-20 -24 -38.5 -55t-27.5 -64h-20q6 24 17 47t24.5 44
t28 38.5t27.5 31.5z" />
    <glyph glyph-name="Yacute" unicode="&#xdd;" horiz-adv-x="550" 
d="M461 802l-3 25l144 82l3 -25zM667 732l-254 -356l-93 -348h52l-8 -27h-178l7 27h52l93 348l-63 356h-56l7 28h178l-7 -28h-44l58 -325l232 325h-43l7 28h124l-8 -28h-56z" />
    <glyph glyph-name="agrave" unicode="&#xe0;" horiz-adv-x="389" 
d="M328 505l-41 87l20 20l41 -87zM405 222q9 34 7.5 63.5t-9.5 53.5l-83 -311h51l-8 -28h-115h-10l62 232q10 36 15.5 76t1.5 72q-6 57 -32.5 57t-63.5 -57q-20 -32 -36 -72t-26 -76t-15.5 -76t-1.5 -72q2 -17 6.5 -30t13.5 -18.5t22.5 -2t34.5 20.5l-12 -46
q-14 -5 -25 -6.5t-31 -1.5l2 2q-30 5 -48.5 27t-26 54.5t-6 71.5t12.5 77q11 40 31.5 81.5t48 74.5t60 54t67.5 21q38 0 62 -29l13 49l51 -106l-1 -1q11 -28 16 -67.5t-7 -86.5h-21z" />
    <glyph glyph-name="aacute" unicode="&#xe1;" horiz-adv-x="389" 
d="M278 505l-9 20l87 87l9 -20zM405 222q9 34 7.5 63.5t-9.5 53.5l-30 -112l-53 -199h51l-8 -28h-115h-10l62 232q10 36 15.5 76t1.5 72q-6 57 -32.5 57t-63.5 -57q-20 -32 -36 -72t-26 -76t-15.5 -76t-1.5 -72q2 -17 6.5 -30t13.5 -18.5t22.5 -2t34.5 20.5l-12 -46
q-14 -5 -25 -6.5t-31 -1.5l1 2q-30 5 -48 27t-25.5 54.5t-6 71.5t12.5 77q11 40 31.5 81.5t48 75t60 54.5t67.5 21q37 0 62 -30l13 49l51 -106h-1q11 -29 16 -68.5t-7 -86.5h-21z" />
    <glyph glyph-name="acircumflex" unicode="&#xe2;" horiz-adv-x="389" 
d="M384 505l-62 72l-101 -72l-5 23l115 83l70 -83zM405 221q9 34 7 64t-9 54l-83 -312h51l-8 -27h-115h-10l62 232q10 36 15.5 75.5t1.5 71.5q-7 57 -33 57t-63 -57q-20 -32 -36 -71.5t-26 -76.5q-10 -36 -15.5 -76t-1.5 -72q2 -17 6.5 -30t13.5 -18.5t22.5 -1.5t34.5 21
l-12 -47q-14 -5 -25 -6t-31 -1l2 1q-30 5 -48.5 27t-26.5 54.5t-6 71.5t12 77q11 40 32 81.5t48.5 75t60 54.5t66.5 21q20 0 35.5 -7.5t27.5 -21.5l13 49l50 -106v-1q11 -29 16 -68t-7 -87h-21z" />
    <glyph glyph-name="atilde" unicode="&#xe3;" horiz-adv-x="389" 
d="M349 532q-17 0 -24.5 8.5t-13.5 18.5q-5 8 -10.5 14.5t-16.5 6.5q-8 0 -20.5 -6.5t-26.5 -20.5l-9 20q35 35 63 35q17 0 25 -8.5t13 -17.5q5 -10 11 -16t16 -6q20 0 47 27l10 -20q-37 -35 -64 -35zM405 222q9 33 7.5 63t-9.5 54l-30 -112l-53 -199h51l-8 -28h-115h-10
l65 244q10 35 13.5 70.5t0.5 64.5q-7 57 -33 57t-63 -57q-20 -32 -36 -71.5t-26 -76.5q-10 -36 -15.5 -75.5t-1.5 -71.5q2 -18 6.5 -31t13.5 -18t22.5 -1.5t34.5 20.5l-12 -47q-14 -4 -25 -5.5t-32 -1.5l2 2q-30 5 -48 27t-25.5 54.5t-6 71t12.5 76.5q10 40 31 81.5t48.5 75
t60 54.5t66.5 21q20 0 35.5 -7.5t27.5 -21.5l13 49l19 -41q4 -9 9.5 -20t10.5 -22l12 -24h-1q11 -29 16 -68.5t-7 -85.5h-21z" />
    <glyph glyph-name="adieresis" unicode="&#xe4;" horiz-adv-x="389" 
d="M384 608q18 0 23 -16t0 -34.5t-18.5 -34.5t-31.5 -16t-23 16t0 34.5t18.5 34.5t31.5 16zM276 608q18 0 23.5 -16t0.5 -34.5t-18.5 -34.5t-31.5 -16q-19 0 -24 16t0 34.5t18.5 34.5t31.5 16zM405 221q9 34 7 63.5t-9 53.5l-30 -112l-53 -199h50l-7 -27h-115h-10l65 245
q10 35 13.5 69.5t0.5 64.5q-7 57 -33 57t-63 -57q-20 -32 -36 -72t-26 -76t-15.5 -76t-1.5 -72q2 -17 6.5 -30t13.5 -18.5t22.5 -2t34.5 20.5l-12 -46q-14 -5 -25 -6t-31 -1l1 1q-30 5 -48 27t-26 54.5t-6 71.5t12 77q11 40 31.5 81.5t48 74.5t60 54t67.5 21q39 0 63 -29
l13 49l19 -40q4 -9 9.5 -20.5t10.5 -21.5q5 -12 11 -24q11 -29 16 -68.5t-7 -86.5h-21z" />
    <glyph glyph-name="aring" unicode="&#xe5;" horiz-adv-x="389" 
d="M331 609q18 0 23 -15.5t0 -34.5t-18.5 -34.5t-31.5 -15.5t-23 15.5t0 34.5t18.5 34.5t31.5 15.5zM405 222q9 34 7.5 63.5t-9.5 54.5l-30 -112l-53 -200h51l-8 -27h-115h-10l62 231q10 37 15.5 76.5t1.5 71.5q-6 57 -32.5 57t-63.5 -57q-20 -32 -36 -72t-26 -76t-15.5 -76
t-1.5 -72q2 -17 6.5 -30t13.5 -18.5t22.5 -1.5t34.5 21l-12 -47q-14 -5 -25 -6t-31 -1l2 1q-30 5 -48 27t-26 54.5t-6.5 71.5t12.5 77q11 40 31.5 81.5t48 75t60 54.5t67.5 21q19 0 34.5 -7.5t27.5 -21.5l13 48l51 -105l-1 -1q11 -29 16 -68t-7 -87h-21zM318 579
q-7 -9 -10 -20t-2 -19q2 -16 11 -2q6 9 9 20t2 19q-1 15 -10 2zM310 532q-5 1 -4.5 9t3.5 18q3 11 7 18.5t8 7.5q8 0 2 -27q-4 -14 -8.5 -20t-7.5 -6z" />
    <glyph glyph-name="ae" unicode="&#xe6;" horiz-adv-x="557" 
d="M566 216q-20 1 -44.5 0.5t-50.5 -3.5q-31 -4 -58 -13.5t-47 -28.5q-4 -23 -5 -45.5t1 -41.5q7 -60 37 -55t70 71h68q-60 -72 -117.5 -92.5t-95.5 21.5l-7 -29h-76l62 230q9 36 14.5 75t1.5 71q-7 56 -34 56t-63 -56q-21 -32 -37 -71t-25 -75q-10 -36 -15.5 -75t-1.5 -71
q2 -17 7 -30t14 -18.5t23 -2t35 20.5l-13 -46q-13 -5 -24.5 -6.5t-31.5 -1.5l2 2q-30 5 -49 27t-27 54t-6.5 70.5t11.5 76.5q11 40 31.5 81t48.5 74t61 53.5t68 20.5q39 0 63 -29l13 49l35 -71q26 23 53 37t54 14q36 0 57.5 -21.5t31 -56t7.5 -78t-14 -87.5h-27zM537 376
q-6 56 -33 56t-64 -56q-24 -37 -41.5 -83.5t-26.5 -89.5q18 13 38 20.5t40 12t39.5 6.5t35.5 2q8 33 12 68t0 64z" />
    <glyph glyph-name="ccedilla" unicode="&#xe7;" 
d="M199 4q1 -10 -2 -27q-7 -25 -22 -37.5t-29 -12.5q-14 1 -21.5 14.5t1.5 45.5h20q-5 -20 -1.5 -26t9.5 -6q16 0 22 22q6 21 -10 23q-34 1 -55.5 21t-31 52.5t-8 73t12.5 82.5q14 53 39.5 97t56 74.5t63 46t61 11t49.5 -30.5t30 -77q-19 -13 -34.5 -24.5t-36.5 -29.5
q2 24 2.5 47.5t-2 43t-9.5 32t-20 13.5q-15 1 -32.5 -17t-30.5 -39q-19 -30 -35 -68.5t-27 -78.5t-15.5 -78.5t-1.5 -68.5q3 -31 13.5 -44.5t25 -10t32.5 23t37 53.5q39 15 64.5 47.5t39.5 87.5h21q-11 -39 -28.5 -77t-40 -70t-49.5 -55.5t-57 -32.5z" />
    <glyph glyph-name="egrave" unicode="&#xe8;" horiz-adv-x="332" 
d="M326 505l-40 87l19 19l41 -86zM342 218h-44t-49 -3q-30 -5 -56.5 -14.5t-46.5 -28.5q-4 -23 -5.5 -45.5t0.5 -42.5q7 -60 37 -56t68 72h67q-59 -73 -109.5 -89.5t-83.5 8t-44 81.5t9 132q10 40 31 81t48 74.5t59.5 54.5t66.5 21q35 0 56 -21.5t30 -56.5t6.5 -79
t-14.5 -88h-26zM315 379q-6 57 -32 57t-63 -57q-23 -37 -40.5 -83.5t-27.5 -90.5q35 25 76.5 32.5t73.5 7.5q8 34 12 69.5t1 64.5z" />
    <glyph glyph-name="eacute" unicode="&#xe9;" 
d="M277 505l-9 19l86 87l10 -20zM341 217l1 1h-44t-49 -4q-30 -4 -56.5 -13.5t-46.5 -29.5q-4 -22 -5.5 -45t0.5 -43q7 -60 36.5 -55.5t68.5 72.5h66q-58 -73 -108.5 -89.5t-83.5 7.5t-44.5 81t8.5 132q11 40 31.5 81.5t48 75t60 54.5t66.5 21q35 0 56 -21.5t30 -56.5
t6.5 -79t-14.5 -89h-27zM315 379q-6 57 -32.5 57t-62.5 -57q-23 -38 -40.5 -84.5t-27.5 -90.5q17 13 37 21t39.5 12.5t38.5 6t34 1.5q8 34 12.5 69.5t1.5 64.5z" />
    <glyph glyph-name="ecircumflex" unicode="&#xea;" 
d="M382 504l-61 73l-100 -73l-5 24l114 83l69 -83zM341 217l1 1h-44t-49 -4q-30 -4 -56.5 -13.5t-46.5 -29.5q-4 -22 -5.5 -45t0.5 -42q7 -60 36.5 -56t68.5 72h67q-39 -49 -75 -72t-66 -25t-52.5 14.5t-34.5 47.5t-13 73.5t12 92.5q11 40 31.5 81.5t48 75t60 54.5t66.5 21
q35 0 56 -21.5t30 -56.5t6.5 -79t-14.5 -89h-27zM315 379q-6 57 -32.5 57t-62.5 -57q-23 -38 -40.5 -84.5t-27.5 -90.5q17 13 37 21t39.5 12.5t38.5 6t34 1.5q8 34 12.5 69.5t1.5 64.5z" />
    <glyph glyph-name="edieresis" unicode="&#xeb;" horiz-adv-x="332" 
d="M383 608q18 0 23 -15.5t-0.5 -34.5t-18.5 -34.5t-31 -15.5t-23 15.5t0 34.5t18.5 34.5t31.5 15.5zM276 608q18 0 23 -15.5t-0.5 -34.5t-18.5 -34.5t-31 -15.5t-23 15.5t0 34.5t18.5 34.5t31.5 15.5zM341 217l1 1h-44t-49 -4q-30 -4 -56.5 -13.5t-46.5 -28.5
q-4 -23 -5.5 -46t0.5 -42q7 -60 37 -56t68 72h67q-39 -49 -75 -72t-66 -25t-52.5 15t-34.5 48t-13 73.5t12 91.5q11 40 31.5 81.5t48 75t60 54.5t66.5 21q35 0 56 -21.5t30 -56.5t6.5 -79t-14.5 -89h-27zM315 379q-6 57 -32.5 57t-62.5 -57q-23 -38 -40.5 -84.5t-27.5 -90.5
q17 13 37 21t39.5 12.5t38.5 6t34 1.5q8 34 12.5 69.5t1.5 64.5z" />
    <glyph glyph-name="igrave" unicode="&#xec;" horiz-adv-x="217" 
d="M269 505l-38 87l19 19l38 -86zM25 0l8 28h48l84 310q-20 -24 -37 -53.5t-26 -62.5h-20q14 49 41.5 91t54.5 71l18.5 18.5t32.5 33.5q20 21 46 47l-122 -455h49l-8 -28h-169z" />
    <glyph glyph-name="iacute" unicode="&#xed;" horiz-adv-x="217" 
d="M221 505l-8 20l84 86l9 -19zM25 0l8 28h48l84 310q-20 -24 -37 -53.5t-26 -62.5h-20q14 49 41 91t55 71q3 2 18.5 18t32.5 34q20 21 46 47l-122 -455h49l-8 -28h-169z" />
    <glyph glyph-name="icircumflex" unicode="&#xee;" horiz-adv-x="219" 
d="M323 506l-58 72l-97 -72l-5 21l110 83l66 -83zM25 0l8 27h48l84 311q-20 -24 -37 -53.5t-26 -63.5h-20q13 49 40.5 91t54.5 71q3 3 18.5 19t33.5 34q20 21 46 47l-122 -456h49l-8 -27h-169z" />
    <glyph glyph-name="idieresis" unicode="&#xef;" horiz-adv-x="220" 
d="M324 607q18 0 22.5 -15.5t-0.5 -34.5t-18 -34.5t-31 -15.5t-22.5 15.5t0.5 34.5t18 34.5t31 15.5zM221 607q18 0 22.5 -15.5t-0.5 -34.5t-18 -34.5t-31 -15.5t-22.5 15.5t0.5 34.5t18 34.5t31 15.5zM25 0l8 27h48l84 310q-20 -24 -37 -53.5t-26 -62.5h-20q13 49 40.5 91
t54.5 70q3 3 18.5 19t33.5 34q20 21 46 47l-122 -455h49l-8 -27h-169z" />
    <glyph glyph-name="ntilde" unicode="&#xf1;" horiz-adv-x="442" 
d="M404 533q-16 0 -24 8.5t-14 17.5q-5 10 -11 16q-8 6 -16 6t-23.5 -9.5t-50.5 -42.5l22 36q-1 1 -3 5q-1 2 -2 3q36 36 64 36q17 0 25 -9t13 -18q3 -4 5.5 -8t5.5 -7q7 -7 17 -7q18 0 47 27l9 -19q-35 -35 -64 -35zM242 0l8 28h51l93 349q7 26 -0.5 42.5t-27.5 16.5
q-25 0 -57 -20.5t-58 -44.5l-92 -343h51l-7 -28h-177l7 28h51l84 311q-20 -24 -38 -53.5t-27 -63.5h-21q14 49 42 91.5t57 70.5q3 3 19 18.5t34 33.5l47 47l-20 -75q26 22 59 38.5t71 17.5l-2 -2q28 -4 46 -23t21 -56q2 -17 0.5 -37.5t-6.5 -40.5l-74 -277h51l-8 -28h-177z
" />
    <glyph glyph-name="ograve" unicode="&#xf2;" horiz-adv-x="332" 
d="M326 505l-40 86l19 20l41 -87zM166 0q-34 0 -55 21t-30.5 54t-8.5 74t12 82q11 40 31.5 81.5t48 75t60 54.5t66.5 21t55 -21t31 -54.5t8.5 -75t-12.5 -81.5q-11 -41 -31.5 -82t-48 -74t-60 -54t-66.5 -21zM315 379q-6 57 -32 57t-63 -57q-20 -32 -36 -71.5t-26 -76.5
q-10 -36 -15 -76t-2 -72q6 -57 32.5 -57t62.5 57q20 32 36 72t26 76q10 37 15.5 76.5t1.5 71.5z" />
    <glyph glyph-name="oacute" unicode="&#xf3;" 
d="M277 505l-9 19l87 87l9 -20zM166 0q-34 0 -55 21t-30.5 54t-8.5 74t12 82q11 40 31.5 81.5t48 75t60 54.5t66.5 21t55 -21t31 -54.5t8.5 -75t-12.5 -81.5q-11 -41 -31.5 -82t-48 -74t-60 -54t-66.5 -21zM315 379q-6 57 -32 57t-63 -57q-20 -32 -36 -71.5t-26 -76.5
q-10 -36 -15 -76t-2 -72q6 -57 32.5 -57t62.5 57q20 32 36 72t26 76q10 37 15.5 76.5t1.5 71.5z" />
    <glyph glyph-name="ocircumflex" unicode="&#xf4;" 
d="M382 505l-61 73l-121 -89l18 28q-1 2 -1 7q0 2 -1 4l114 83l70 -83zM166 0q-34 0 -55 21t-30.5 54.5t-8 74.5t12.5 81q10 40 31 81.5t48 75t59.5 54.5t66.5 21t55.5 -21t31 -54.5t8 -75t-12.5 -81.5t-31.5 -81t-48 -74.5t-60 -54.5t-66.5 -21zM315 379q-6 57 -32 57
t-63 -57q-20 -32 -36 -71.5t-26 -76.5q-10 -36 -15 -75.5t-2 -71.5q6 -57 32.5 -57t62.5 57q20 32 36 71.5t26 75.5q10 37 15.5 76.5t1.5 71.5z" />
    <glyph glyph-name="otilde" unicode="&#xf5;" horiz-adv-x="332" 
d="M347 533q-16 0 -24 8.5t-13 17.5t-10.5 15.5t-16.5 6.5q-8 0 -23.5 -9.5t-49.5 -43.5l22 37q-1 1 -3 5q-1 2 -2 3q36 36 64 36q16 0 24 -9t13 -18t10.5 -15.5t16.5 -6.5q18 0 47 27l9 -19q-17 -18 -33.5 -26.5t-30.5 -8.5zM166 0q-34 0 -55 21t-30.5 54.5t-8 74.5
t12.5 82q11 40 31.5 81.5t47.5 74.5t59.5 54t66.5 21t55.5 -21t31 -54t8 -74.5t-12.5 -81.5q-11 -41 -31.5 -82t-48 -74.5t-60 -54.5t-66.5 -21zM315 380q-6 57 -32 57t-63 -57q-20 -32 -35.5 -72t-25.5 -76q-10 -37 -15.5 -76.5t-2.5 -71.5q6 -57 32.5 -57t62.5 57
q21 32 36.5 71.5t25.5 76.5q10 36 15.5 76t1.5 72z" />
    <glyph glyph-name="odieresis" unicode="&#xf6;" 
d="M383 609q18 0 23 -16t-0.5 -34.5t-18.5 -34.5t-31 -16t-23 16t0 34.5t18.5 34.5t31.5 16zM276 609q18 0 23 -16t0 -34.5t-18.5 -34.5t-31.5 -16t-23 16t0 34.5t18.5 34.5t31.5 16zM166 0q-34 0 -55 21t-30.5 54.5t-8 74.5t12.5 82q11 40 31.5 81.5t47.5 75t59.5 54.5
t66.5 21t55.5 -21t31 -54.5t8 -75t-12.5 -81.5q-11 -41 -31.5 -82t-48 -74.5t-60 -54.5t-66.5 -21zM315 380q-6 57 -32 57t-62 -57q-21 -32 -36.5 -72t-25.5 -76q-10 -37 -15.5 -76.5t-2.5 -71.5q6 -57 32.5 -57t62.5 57q21 32 36.5 71.5t25.5 76.5q10 36 15.5 76t1.5 72z
" />
    <glyph glyph-name="divide" unicode="&#xf7;" horiz-adv-x="270" 
d="M237 380q18 0 23 -15t0 -33.5t-18 -33.5t-31 -15t-23 15t0 33.5t18 33.5t31 15zM79 212l8 28h225l-8 -28h-225zM180 169q18 0 23 -15t0 -33.5t-18 -33.5t-31 -15t-23 15t0 33.5t18 33.5t31 15z" />
    <glyph glyph-name="oslash" unicode="&#xf8;" 
d="M376 381q9 -33 7.5 -72t-12.5 -80q-11 -40 -31.5 -81t-47.5 -74t-59.5 -53.5t-66.5 -20.5q-27 0 -47 15t-32 41l-52 -58l-11 17l55 62q-9 33 -7.5 72t12.5 80q10 40 31 81t48 74t59.5 53.5t66.5 20.5q28 0 48 -15t31 -41l52 59l11 -18zM282 431q-15 1 -32 -17.5
t-31 -38.5q-15 -23 -28 -51.5t-22.5 -58.5t-16.5 -60t-10 -57l173 195q0 15 -1 30t-4.5 27.5t-10.5 21t-17 9.5zM140 115q0 -15 1 -30t4.5 -27.5t10 -21t17.5 -9.5q15 -1 32 17.5t31 38.5q15 24 28 52t22.5 58t16.5 60t10 57z" />
    <glyph glyph-name="ugrave" unicode="&#xf9;" horiz-adv-x="442" 
d="M383 505l-42 86l20 20l42 -87zM485 435l-37 -136l-19 -71q0 -2 -2 -6q-1 -3 -1 -5q-12 -39 -33 -78t-48 -69.5t-58.5 -50t-64.5 -19.5q-35 0 -56 21t-31 54.5t-8.5 75.5t13.5 84v1l27 103q-20 -24 -37.5 -54t-26.5 -64h-21q14 49 41.5 91.5t56.5 70.5l53 53q21 21 48 47
l-67 -252q-10 -36 -15.5 -75.5t-1.5 -71.5q1 -10 3.5 -20.5t6.5 -19t9.5 -13.5t13.5 -4q18 2 33 18t30 39q33 51 50 108.5t32 113.5l35 129h-51l7 28h177l-7 -28h-51z" />
    <glyph glyph-name="uacute" unicode="&#xfa;" horiz-adv-x="442" 
d="M333 505l-10 20l88 86l9 -20zM485 435l-58 -217h-1q-12 -39 -33 -78t-48 -70t-58.5 -50.5t-64.5 -19.5q-36 0 -57 22t-30.5 55.5t-8 74.5t12.5 79l1 5l27 103q-20 -24 -37.5 -54t-26.5 -63h-21q14 49 41.5 91t56.5 70l41 41q16 16 36 35l24 24l-71 -265q-9 -35 -13 -70
t0 -64q6 -57 32.5 -57t63.5 57q22 33 37.5 73.5t26.5 78.5l53 199h-51l7 28h177l-7 -28h-51z" />
    <glyph glyph-name="ucircumflex" unicode="&#xfb;" horiz-adv-x="442" 
d="M439 505l-62 73l-122 -88l18 27q-1 2 -1 7q0 2 -1 4l115 83l71 -83zM485 435l-59 -217q-12 -39 -33 -78t-48 -70t-58.5 -50.5t-64.5 -19.5q-34 0 -55 20.5t-31 53.5t-9 74t11 82l1 1l1 5l28 103q-20 -24 -38 -53.5t-27 -63.5h-21q14 49 41.5 91t56.5 70l53 53
q21 21 48 47l-68 -252q-9 -36 -14.5 -75.5t-1.5 -71.5q1 -10 3.5 -20.5t6.5 -19t9.5 -13t13.5 -3.5q18 2 33 17.5t30 38.5q22 33 37.5 73.5t26.5 78.5l53 199h-51l7 28h177l-7 -28h-51z" />
    <glyph glyph-name="udieresis" unicode="&#xfc;" horiz-adv-x="442" 
d="M440 608q18 0 23 -15.5t0 -34.5t-18.5 -34.5t-31.5 -15.5q-19 0 -24 15.5t0 34.5t18.5 34.5t32.5 15.5zM331 608q18 0 23.5 -15.5t0.5 -34.5t-18.5 -34.5t-32.5 -15.5q-18 0 -23 15.5t0 34.5t18.5 34.5t31.5 15.5zM485 435l-36 -135l-20 -72q0 -1 -0.5 -2.5t-0.5 -3.5
q-1 -2 -1 -4h-1q-12 -39 -33 -78t-48 -70t-58.5 -50.5t-64.5 -19.5q-35 0 -56 21.5t-29.5 59t-4.5 88t19 108.5v-1q4 16 8.5 32.5t7.5 30.5q-20 -24 -37.5 -53.5t-26.5 -63.5h-21q14 49 42 91t57 71q3 3 19 18.5t34 33.5l47 47l-71 -265q-9 -35 -13 -70t0 -64q7 -57 33 -57
t63 57q22 33 37.5 73.5t26.5 78.5l53 199h-51l7 28h177l-7 -28h-51z" />
    <glyph glyph-name="yacute" unicode="&#xfd;" horiz-adv-x="384" 
d="M277 502l-10 20l88 87l9 -20zM427 432l-80 -298v1l-15 -57.5t-18 -66.5q-11 -38 -21 -79l-3 -12h-1q-12 -39 -33 -78t-47.5 -70t-57.5 -50.5t-64 -19.5q-34 0 -55 21t-30.5 54.5t-8.5 75t12 82.5q10 36 28 73t42 69t53 55.5t62 32.5l11 -23q-23 -14 -42.5 -38.5t-35 -54
t-26.5 -60t-18 -54.5q-10 -36 -15.5 -76.5t-1.5 -72.5q6 -57 32 -57t63 57q20 32 36 72t26 77l23 83l19 70q6 34 0 69.5t-17 59.5l-63 135q-23 -26 -46 -61t-34 -75h-21q12 45 32.5 78t45.5 62q12 14 24.5 27t25.5 26q12 13 24 24.5t26 24.5h6l7 -15l-70 -70l63 -137
q7 -14 11.5 -30.5t7.5 -34.5l6 23q7 26 16.5 61l19 70t17 64t11.5 43h-51l8 28h175l-7 -28h-51z" />
    <glyph glyph-name="ydieresis" unicode="&#xff;" horiz-adv-x="384" 
d="M383 606q18 0 23 -16t0 -34.5t-18.5 -34.5t-31.5 -16t-23 16t0 34.5t18.5 34.5t31.5 16zM276 606q18 0 23 -16t-0.5 -34.5t-18.5 -34.5t-31 -16t-23 16t0 34.5t18.5 34.5t31.5 16zM427 432l-114 -426l-20 -75l-3 -10q-12 -39 -33 -78.5t-48 -71t-58 -51t-64 -19.5
q-34 0 -55 21t-30.5 55t-8.5 75.5t12 82.5q10 36 28 73t42 69t53 55.5t62 32.5l11 -23q-23 -14 -42.5 -38.5t-35 -54t-26.5 -60t-18 -54.5q-10 -37 -15.5 -77t-1.5 -72q6 -57 32 -57t63 57q20 32 36 72t26 77l23 83l19 70q6 34 0 69.5t-17 58.5l-63 136q-23 -26 -46 -61
t-34 -75h-21q12 45 32.5 78t45.5 62q24 27 50 53l24 24t26 25h6l7 -15l-70 -71l63 -136q7 -14 11.5 -30.5t7.5 -34.5l6 24q7 26 16.5 61.5t19 70t17 63t11.5 42.5h-51l8 28h175l-7 -28h-51z" />
    </font>
</defs>
</svg>
